<svg width="96" height="96" viewBox="0 0 96 96" fill="none" xmlns="http://www.w3.org/2000/svg">
<path d="M57.6 0H96L0 96V57.841L57.6 0Z" fill="#50545B"/>
<path d="M18.7348 51.0923L26.8128 59.1703L32.8317 53.1514L31.7003 52.02L27.0051 56.7152L24.5613 54.2714L28.7927 50.0401L27.6613 48.9087L23.43 53.1401L21.1899 50.8999L25.6927 46.3971L24.5613 45.2657L18.7348 51.0923ZM30.9717 42.9962C30.621 43.3469 30.3721 43.7316 30.225 44.1728C30.0779 44.5914 30.0327 45.0666 30.0779 45.5644L29.3991 44.8856L28.1093 46.1753L33.9585 52.0245L35.2483 50.7347L31.7297 47.2162C31.3111 46.7071 31.1075 46.1866 31.1301 45.6662C31.1414 45.2023 31.3111 44.8064 31.6279 44.4896C32.5104 43.6071 33.4268 43.641 34.3885 44.6027L37.8844 48.0986L39.1742 46.8089L35.5651 43.1998C33.9585 41.5933 32.4312 41.5367 30.9717 42.9962ZM36.4595 33.0508L39.6499 36.2413C38.5186 36.0829 37.6248 36.3431 36.946 37.0219C36.1088 37.8591 35.7467 38.8321 35.8825 39.9182C35.9956 40.9365 36.4934 41.8642 37.3533 42.724C38.247 43.6178 39.2087 44.1269 40.2269 44.2401C41.3244 44.3645 42.3087 43.9912 43.1798 43.12C43.9492 42.3507 44.2773 41.5021 44.1641 40.5744L44.7864 41.1967L45.9856 39.9974L37.7492 31.761L36.4595 33.0508ZM38.2923 37.7573C38.6996 37.35 39.22 37.169 39.831 37.2369C40.4872 37.3048 41.1434 37.6442 41.7656 38.2664L41.8561 38.3569C42.4218 38.9226 42.7725 39.5222 42.897 40.1219C43.0214 40.7894 42.8291 41.389 42.3313 41.8868C41.7543 42.4638 41.132 42.6788 40.4645 42.5317C39.8988 42.4185 39.3105 42.0339 38.677 41.4003C38.0434 40.7667 37.6814 40.1784 37.5908 39.6127C37.4777 38.9566 37.704 38.3456 38.2923 37.7573ZM43.8198 30.1481C42.9486 31.0193 42.5526 32.0036 42.6544 33.101C42.7223 34.2097 43.1975 35.1827 44.0687 36.0539C45.0416 37.0269 46.0712 37.5133 47.1686 37.5247C48.2095 37.5473 49.1711 37.1287 50.0423 36.2575C50.8229 35.4769 51.2415 34.6057 51.3207 33.6441C51.366 32.8747 51.1737 32.1393 50.7664 31.4605L49.4766 32.7503C49.6463 33.2368 49.7142 33.6441 49.6689 33.9835C49.6011 34.4134 49.3748 34.8207 48.9788 35.2167C48.5149 35.6805 48.0058 35.8955 47.4741 35.8615C46.9423 35.8276 46.3767 35.5561 45.7883 35.0583L50.1667 30.6799C49.1146 29.6277 48.0511 29.0394 46.9989 28.9149C45.8336 28.7679 44.7814 29.1865 43.8198 30.1481ZM44.9059 31.1664C45.811 30.2613 46.7839 30.216 47.8474 31.0532L44.838 34.0627C44.4533 33.5196 44.261 33.0105 44.261 32.5353C44.261 32.0375 44.4759 31.5963 44.9059 31.1664ZM49.6846 19.8257L52.8751 23.0162C51.7437 22.8578 50.8499 23.118 50.1711 23.7968C49.3339 24.634 48.9718 25.607 49.1076 26.6931C49.2207 27.7113 49.7185 28.6391 50.5784 29.4989C51.4722 30.3927 52.4338 30.9018 53.452 31.0149C54.5495 31.1394 55.5338 30.766 56.4049 29.8949C57.1743 29.1256 57.5024 28.277 57.3892 27.3493L58.0115 27.9716L59.2107 26.7723L50.9743 18.5359L49.6846 19.8257ZM51.5174 24.5322C51.9247 24.1249 52.4451 23.9439 53.0561 24.0118C53.7123 24.0796 54.3685 24.4191 54.9907 25.0413L55.0812 25.1318C55.6469 25.6975 55.9976 26.2971 56.1221 26.8968C56.2465 27.5643 56.0542 28.1639 55.5564 28.6617C54.9794 29.2387 54.3571 29.4537 53.6896 29.3066C53.124 29.1934 52.5356 28.8088 51.9021 28.1752C51.2685 27.5416 50.9065 26.9533 50.816 26.3876C50.7028 25.7314 50.9291 25.1205 51.5174 24.5322Z" fill="white"/>
</svg>
