<svg width="29" height="29" viewBox="0 0 29 29" fill="none" xmlns="http://www.w3.org/2000/svg">
<path d="M4.8891 4.33258C10.3507 -1.12902 19.2057 -1.12902 24.6673 4.33258C30.1289 9.79418 30.1289 18.6492 24.6673 24.1108C19.2057 29.5724 10.3507 29.5724 4.8891 24.1108C-0.5725 18.6492 -0.5725 9.79418 4.8891 4.33258ZM8.50251 13.3617C8.09476 13.4357 7.78555 13.7926 7.78555 14.2217L7.79963 14.3788C7.87364 14.7866 8.23053 15.0958 8.65963 15.0958H13.9041V20.3402L13.9182 20.4974C13.9922 20.9051 14.3491 21.2143 14.7782 21.2143L14.9353 21.2002C15.3431 21.1262 15.6523 20.7694 15.6523 20.3402V15.0958H20.8968L21.0539 15.0817C21.4616 15.0077 21.7708 14.6508 21.7708 14.2217L21.7568 14.0646C21.6828 13.6568 21.3259 13.3476 20.8968 13.3476H15.6523V8.10311L15.6382 7.94599C15.5642 7.53824 15.2073 7.22903 14.7782 7.22903L14.6211 7.24311C14.2133 7.31712 13.9041 7.67401 13.9041 8.10311V13.3476H8.65963L8.50251 13.3617Z" fill="#F07D60"/>
</svg>
