<svg width="15" height="15" viewBox="0 0 15 15" fill="none" xmlns="http://www.w3.org/2000/svg">
<path d="M7.5 11.0159C7.31359 11.0151 7.13488 10.9415 7.00195 10.8108L2.31445 6.12329C2.18236 5.9912 2.10815 5.81205 2.10815 5.62524C2.10815 5.43844 2.18236 5.25929 2.31445 5.1272C2.44654 4.99511 2.6257 4.9209 2.8125 4.9209C2.9993 4.9209 3.17846 4.99511 3.31055 5.1272L7.5 9.31665L11.6895 5.1272C11.8215 4.99511 12.0007 4.9209 12.1875 4.9209C12.3743 4.9209 12.5535 4.99511 12.6855 5.1272C12.8176 5.25929 12.8918 5.43844 12.8918 5.62524C12.8918 5.81205 12.8176 5.9912 12.6855 6.12329L7.99805 10.8108C7.86512 10.9415 7.6864 11.0151 7.5 11.0159Z" fill="#E1E1E1"/>
</svg>
