<svg width="24" height="24" viewBox="0 0 24 24" fill="none" xmlns="http://www.w3.org/2000/svg">
<path d="M11.3813 12.3536L11.7348 12L11.3813 11.6464L8.46447 8.72963C8.40353 8.6687 8.39304 8.57536 8.43414 8.50388L8.47578 8.45403C8.53653 8.40246 8.62303 8.39551 8.69022 8.43414L8.74545 8.48028L11.6464 11.3813L12 11.7348L12.3536 11.3813L15.2704 8.46447C15.3313 8.40353 15.4246 8.39304 15.4961 8.43414L15.546 8.47579C15.5975 8.53653 15.6045 8.62303 15.5659 8.69021L15.5197 8.74544L12.6187 11.6464L12.2652 12L12.6187 12.3536L15.5355 15.2704C15.5965 15.3313 15.607 15.4246 15.5659 15.4961L15.5242 15.546C15.4635 15.5975 15.377 15.6045 15.3098 15.5659L15.2546 15.5197L12.3536 12.6187L12 12.2652L11.6464 12.6187L8.72963 15.5355C8.6687 15.5965 8.57536 15.607 8.50388 15.5659L8.45403 15.5242C8.40246 15.4635 8.39551 15.377 8.43414 15.3098L8.48028 15.2546L11.3813 12.3536ZM23.5 12C23.5 5.64873 18.3513 0.5 12 0.5C5.64873 0.5 0.5 5.64873 0.5 12C0.5 18.3513 5.64873 23.5 12 23.5C18.3513 23.5 23.5 18.3513 23.5 12Z" stroke="#E1E1E1"/>
</svg>
