<svg width="34" height="34" viewBox="0 0 34 34" fill="none" xmlns="http://www.w3.org/2000/svg">
<mask id="path-1-outside-1_584_1902" maskUnits="userSpaceOnUse" x="0" y="0" width="34" height="34" fill="black">
<rect fill="white" width="34" height="34"/>
<path d="M32.7216 13.334L29.8014 11.7406V11.6672C29.8014 9.90049 28.368 8.46706 26.6013 8.46706C24.8345 8.46706 23.4011 9.90049 23.4011 11.6672V11.7406V6.33362C23.4011 6.14028 23.2944 5.96027 23.1211 5.86694L20.201 4.2735V4.20016C20.201 2.43343 18.7675 1 17.0008 1C15.2341 1 13.8006 2.43343 13.8006 4.20016V4.2735L10.8805 5.86694C10.7071 5.96027 10.6005 6.14028 10.6005 6.33362V11.7406V11.6672C10.6005 9.90049 9.16705 8.46706 7.40031 8.46706C5.63358 8.46706 4.20015 9.90049 4.20015 11.6672V11.7406L1.28002 13.334C1.10667 13.4273 1 13.6073 1 13.8007V21.2677C1 21.4611 1.10667 21.6411 1.28002 21.7344L7.14698 24.9346C7.30699 25.0212 7.50033 25.0212 7.66034 24.9346L10.6072 23.3279V29.2681C10.6072 29.4615 10.7138 29.6415 10.8872 29.7348L16.7542 32.935C16.9142 33.0217 17.1075 33.0217 17.2675 32.935L23.1345 29.7348C23.3078 29.6415 23.4145 29.4615 23.4145 29.2681V23.3279L26.3613 24.9346C26.5213 25.0212 26.7147 25.0212 26.8747 24.9346L32.7417 21.7344C32.915 21.6411 33.0217 21.4611 33.0217 21.2677V13.8007C33.0017 13.6073 32.895 13.4273 32.7217 13.334H32.7216ZM26.601 9.53378C27.7811 9.53378 28.7345 10.4872 28.7345 11.6672C28.7345 12.8473 27.7811 13.8007 26.601 13.8007C25.421 13.8007 24.4676 12.8473 24.4676 11.6672C24.4676 10.4872 25.421 9.53378 26.601 9.53378ZM26.601 14.8674C27.9144 14.8674 29.1012 14.0607 29.5812 12.834L31.3546 13.8007L26.6011 16.3941L21.8475 13.8007L23.621 12.834C24.101 14.0607 25.2877 14.8674 26.6011 14.8674H26.601ZM17.0005 24.3947L12.247 21.8013L14.0204 20.8346C14.6604 22.4813 16.5206 23.2947 18.1673 22.648C19.0007 22.3213 19.654 21.6679 19.9807 20.8346L21.7541 21.8013L17.0005 24.3947ZM20.2007 19.7411V19.6678C20.2007 18.4677 19.5207 17.361 18.454 16.8144L20.2007 15.861V19.7411ZM17.0005 17.5344C18.1806 17.5344 19.134 18.4878 19.134 19.6678C19.134 20.8479 18.1806 21.8013 17.0005 21.8013C15.8205 21.8013 14.8671 20.8479 14.8671 19.6678C14.8671 18.4878 15.8205 17.5344 17.0005 17.5344ZM13.8004 19.6678V19.7411V15.8676L15.5471 16.821C14.4804 17.361 13.8004 18.4678 13.8004 19.6678V19.6678ZM21.8343 12.5939L19.6675 11.4139V12.6273L20.7209 13.2006L20.4809 13.334C20.3075 13.4273 20.2009 13.6073 20.2009 13.8007V14.6474L17.5341 16.1008V9.84739L22.3343 7.22728V12.3142L21.8343 12.5939ZM17.0007 2.06692C18.1808 2.06692 19.1342 3.02033 19.1342 4.20036C19.1342 5.3804 18.1808 6.33381 17.0007 6.33381C15.8207 6.33381 14.8673 5.3804 14.8673 4.20036C14.8673 3.02033 15.8207 2.06692 17.0007 2.06692ZM17.0007 7.40053C18.3141 7.40053 19.5009 6.59384 19.9809 5.36711L21.7543 6.33381L17.0008 8.92728L12.2472 6.33381L14.0207 5.36711C14.5007 6.59384 15.6874 7.40053 17.0008 7.40053H17.0007ZM11.6671 7.23385L16.4674 9.85396V16.1074L13.8006 14.654V13.8006C13.8006 13.6072 13.6939 13.4272 13.5205 13.3339L13.2805 13.2006L14.3339 12.6272V11.4138L12.1671 12.5872L11.6671 12.3139L11.6671 7.23385ZM7.40023 9.53394C8.58026 9.53394 9.53367 10.4873 9.53367 11.6674C9.53367 12.8474 8.58026 13.8008 7.40023 13.8008C6.22019 13.8008 5.26679 12.8474 5.26679 11.6674C5.26679 10.4873 6.22019 9.53394 7.40023 9.53394ZM7.40023 14.8675C8.71364 14.8675 9.90038 14.0609 10.3804 12.8341L12.1538 13.8008L7.40029 16.3943L2.64674 13.8008L4.42018 12.8341C4.9002 14.0609 6.08694 14.8675 7.40035 14.8675H7.40023ZM2.06662 14.7009L6.86687 17.321V23.5744L2.06662 20.9543V14.7009ZM7.93359 23.5681V17.3146L12.7338 14.6945V19.4148L10.6004 18.2614V19.4748L12.4472 20.4748L10.8804 21.3348C10.7071 21.4282 10.6004 21.6082 10.6004 21.8015V22.1149L7.93359 23.5681ZM11.6671 22.7013L16.4674 25.3214V31.5749L11.6671 28.9548V22.7013ZM17.5341 31.5685V25.3151L22.3343 22.695V28.9484L17.5341 31.5685ZM23.121 21.3347L21.5476 20.4747L23.3944 19.4747V18.2613L21.261 19.4147V14.6944L26.0612 17.3145V23.5679L23.3944 22.1145V21.8012C23.4011 21.6078 23.2944 21.4278 23.121 21.3345L23.121 21.3347ZM27.1346 23.5682V17.3148L31.9348 14.6947V20.9481L27.1346 23.5682Z"/>
</mask>
<path d="M32.7216 13.334L29.8014 11.7406V11.6672C29.8014 9.90049 28.368 8.46706 26.6013 8.46706C24.8345 8.46706 23.4011 9.90049 23.4011 11.6672V11.7406V6.33362C23.4011 6.14028 23.2944 5.96027 23.1211 5.86694L20.201 4.2735V4.20016C20.201 2.43343 18.7675 1 17.0008 1C15.2341 1 13.8006 2.43343 13.8006 4.20016V4.2735L10.8805 5.86694C10.7071 5.96027 10.6005 6.14028 10.6005 6.33362V11.7406V11.6672C10.6005 9.90049 9.16705 8.46706 7.40031 8.46706C5.63358 8.46706 4.20015 9.90049 4.20015 11.6672V11.7406L1.28002 13.334C1.10667 13.4273 1 13.6073 1 13.8007V21.2677C1 21.4611 1.10667 21.6411 1.28002 21.7344L7.14698 24.9346C7.30699 25.0212 7.50033 25.0212 7.66034 24.9346L10.6072 23.3279V29.2681C10.6072 29.4615 10.7138 29.6415 10.8872 29.7348L16.7542 32.935C16.9142 33.0217 17.1075 33.0217 17.2675 32.935L23.1345 29.7348C23.3078 29.6415 23.4145 29.4615 23.4145 29.2681V23.3279L26.3613 24.9346C26.5213 25.0212 26.7147 25.0212 26.8747 24.9346L32.7417 21.7344C32.915 21.6411 33.0217 21.4611 33.0217 21.2677V13.8007C33.0017 13.6073 32.895 13.4273 32.7217 13.334H32.7216ZM26.601 9.53378C27.7811 9.53378 28.7345 10.4872 28.7345 11.6672C28.7345 12.8473 27.7811 13.8007 26.601 13.8007C25.421 13.8007 24.4676 12.8473 24.4676 11.6672C24.4676 10.4872 25.421 9.53378 26.601 9.53378ZM26.601 14.8674C27.9144 14.8674 29.1012 14.0607 29.5812 12.834L31.3546 13.8007L26.6011 16.3941L21.8475 13.8007L23.621 12.834C24.101 14.0607 25.2877 14.8674 26.6011 14.8674H26.601ZM17.0005 24.3947L12.247 21.8013L14.0204 20.8346C14.6604 22.4813 16.5206 23.2947 18.1673 22.648C19.0007 22.3213 19.654 21.6679 19.9807 20.8346L21.7541 21.8013L17.0005 24.3947ZM20.2007 19.7411V19.6678C20.2007 18.4677 19.5207 17.361 18.454 16.8144L20.2007 15.861V19.7411ZM17.0005 17.5344C18.1806 17.5344 19.134 18.4878 19.134 19.6678C19.134 20.8479 18.1806 21.8013 17.0005 21.8013C15.8205 21.8013 14.8671 20.8479 14.8671 19.6678C14.8671 18.4878 15.8205 17.5344 17.0005 17.5344ZM13.8004 19.6678V19.7411V15.8676L15.5471 16.821C14.4804 17.361 13.8004 18.4678 13.8004 19.6678V19.6678ZM21.8343 12.5939L19.6675 11.4139V12.6273L20.7209 13.2006L20.4809 13.334C20.3075 13.4273 20.2009 13.6073 20.2009 13.8007V14.6474L17.5341 16.1008V9.84739L22.3343 7.22728V12.3142L21.8343 12.5939ZM17.0007 2.06692C18.1808 2.06692 19.1342 3.02033 19.1342 4.20036C19.1342 5.3804 18.1808 6.33381 17.0007 6.33381C15.8207 6.33381 14.8673 5.3804 14.8673 4.20036C14.8673 3.02033 15.8207 2.06692 17.0007 2.06692ZM17.0007 7.40053C18.3141 7.40053 19.5009 6.59384 19.9809 5.36711L21.7543 6.33381L17.0008 8.92728L12.2472 6.33381L14.0207 5.36711C14.5007 6.59384 15.6874 7.40053 17.0008 7.40053H17.0007ZM11.6671 7.23385L16.4674 9.85396V16.1074L13.8006 14.654V13.8006C13.8006 13.6072 13.6939 13.4272 13.5205 13.3339L13.2805 13.2006L14.3339 12.6272V11.4138L12.1671 12.5872L11.6671 12.3139L11.6671 7.23385ZM7.40023 9.53394C8.58026 9.53394 9.53367 10.4873 9.53367 11.6674C9.53367 12.8474 8.58026 13.8008 7.40023 13.8008C6.22019 13.8008 5.26679 12.8474 5.26679 11.6674C5.26679 10.4873 6.22019 9.53394 7.40023 9.53394ZM7.40023 14.8675C8.71364 14.8675 9.90038 14.0609 10.3804 12.8341L12.1538 13.8008L7.40029 16.3943L2.64674 13.8008L4.42018 12.8341C4.9002 14.0609 6.08694 14.8675 7.40035 14.8675H7.40023ZM2.06662 14.7009L6.86687 17.321V23.5744L2.06662 20.9543V14.7009ZM7.93359 23.5681V17.3146L12.7338 14.6945V19.4148L10.6004 18.2614V19.4748L12.4472 20.4748L10.8804 21.3348C10.7071 21.4282 10.6004 21.6082 10.6004 21.8015V22.1149L7.93359 23.5681ZM11.6671 22.7013L16.4674 25.3214V31.5749L11.6671 28.9548V22.7013ZM17.5341 31.5685V25.3151L22.3343 22.695V28.9484L17.5341 31.5685ZM23.121 21.3347L21.5476 20.4747L23.3944 19.4747V18.2613L21.261 19.4147V14.6944L26.0612 17.3145V23.5679L23.3944 22.1145V21.8012C23.4011 21.6078 23.2944 21.4278 23.121 21.3345L23.121 21.3347ZM27.1346 23.5682V17.3148L31.9348 14.6947V20.9481L27.1346 23.5682Z" fill="#E5C2B9"/>
<path d="M32.7216 13.334L29.8014 11.7406V11.6672C29.8014 9.90049 28.368 8.46706 26.6013 8.46706C24.8345 8.46706 23.4011 9.90049 23.4011 11.6672V11.7406V6.33362C23.4011 6.14028 23.2944 5.96027 23.1211 5.86694L20.201 4.2735V4.20016C20.201 2.43343 18.7675 1 17.0008 1C15.2341 1 13.8006 2.43343 13.8006 4.20016V4.2735L10.8805 5.86694C10.7071 5.96027 10.6005 6.14028 10.6005 6.33362V11.7406V11.6672C10.6005 9.90049 9.16705 8.46706 7.40031 8.46706C5.63358 8.46706 4.20015 9.90049 4.20015 11.6672V11.7406L1.28002 13.334C1.10667 13.4273 1 13.6073 1 13.8007V21.2677C1 21.4611 1.10667 21.6411 1.28002 21.7344L7.14698 24.9346C7.30699 25.0212 7.50033 25.0212 7.66034 24.9346L10.6072 23.3279V29.2681C10.6072 29.4615 10.7138 29.6415 10.8872 29.7348L16.7542 32.935C16.9142 33.0217 17.1075 33.0217 17.2675 32.935L23.1345 29.7348C23.3078 29.6415 23.4145 29.4615 23.4145 29.2681V23.3279L26.3613 24.9346C26.5213 25.0212 26.7147 25.0212 26.8747 24.9346L32.7417 21.7344C32.915 21.6411 33.0217 21.4611 33.0217 21.2677V13.8007C33.0017 13.6073 32.895 13.4273 32.7217 13.334H32.7216ZM26.601 9.53378C27.7811 9.53378 28.7345 10.4872 28.7345 11.6672C28.7345 12.8473 27.7811 13.8007 26.601 13.8007C25.421 13.8007 24.4676 12.8473 24.4676 11.6672C24.4676 10.4872 25.421 9.53378 26.601 9.53378ZM26.601 14.8674C27.9144 14.8674 29.1012 14.0607 29.5812 12.834L31.3546 13.8007L26.6011 16.3941L21.8475 13.8007L23.621 12.834C24.101 14.0607 25.2877 14.8674 26.6011 14.8674H26.601ZM17.0005 24.3947L12.247 21.8013L14.0204 20.8346C14.6604 22.4813 16.5206 23.2947 18.1673 22.648C19.0007 22.3213 19.654 21.6679 19.9807 20.8346L21.7541 21.8013L17.0005 24.3947ZM20.2007 19.7411V19.6678C20.2007 18.4677 19.5207 17.361 18.454 16.8144L20.2007 15.861V19.7411ZM17.0005 17.5344C18.1806 17.5344 19.134 18.4878 19.134 19.6678C19.134 20.8479 18.1806 21.8013 17.0005 21.8013C15.8205 21.8013 14.8671 20.8479 14.8671 19.6678C14.8671 18.4878 15.8205 17.5344 17.0005 17.5344ZM13.8004 19.6678V19.7411V15.8676L15.5471 16.821C14.4804 17.361 13.8004 18.4678 13.8004 19.6678V19.6678ZM21.8343 12.5939L19.6675 11.4139V12.6273L20.7209 13.2006L20.4809 13.334C20.3075 13.4273 20.2009 13.6073 20.2009 13.8007V14.6474L17.5341 16.1008V9.84739L22.3343 7.22728V12.3142L21.8343 12.5939ZM17.0007 2.06692C18.1808 2.06692 19.1342 3.02033 19.1342 4.20036C19.1342 5.3804 18.1808 6.33381 17.0007 6.33381C15.8207 6.33381 14.8673 5.3804 14.8673 4.20036C14.8673 3.02033 15.8207 2.06692 17.0007 2.06692ZM17.0007 7.40053C18.3141 7.40053 19.5009 6.59384 19.9809 5.36711L21.7543 6.33381L17.0008 8.92728L12.2472 6.33381L14.0207 5.36711C14.5007 6.59384 15.6874 7.40053 17.0008 7.40053H17.0007ZM11.6671 7.23385L16.4674 9.85396V16.1074L13.8006 14.654V13.8006C13.8006 13.6072 13.6939 13.4272 13.5205 13.3339L13.2805 13.2006L14.3339 12.6272V11.4138L12.1671 12.5872L11.6671 12.3139L11.6671 7.23385ZM7.40023 9.53394C8.58026 9.53394 9.53367 10.4873 9.53367 11.6674C9.53367 12.8474 8.58026 13.8008 7.40023 13.8008C6.22019 13.8008 5.26679 12.8474 5.26679 11.6674C5.26679 10.4873 6.22019 9.53394 7.40023 9.53394ZM7.40023 14.8675C8.71364 14.8675 9.90038 14.0609 10.3804 12.8341L12.1538 13.8008L7.40029 16.3943L2.64674 13.8008L4.42018 12.8341C4.9002 14.0609 6.08694 14.8675 7.40035 14.8675H7.40023ZM2.06662 14.7009L6.86687 17.321V23.5744L2.06662 20.9543V14.7009ZM7.93359 23.5681V17.3146L12.7338 14.6945V19.4148L10.6004 18.2614V19.4748L12.4472 20.4748L10.8804 21.3348C10.7071 21.4282 10.6004 21.6082 10.6004 21.8015V22.1149L7.93359 23.5681ZM11.6671 22.7013L16.4674 25.3214V31.5749L11.6671 28.9548V22.7013ZM17.5341 31.5685V25.3151L22.3343 22.695V28.9484L17.5341 31.5685ZM23.121 21.3347L21.5476 20.4747L23.3944 19.4747V18.2613L21.261 19.4147V14.6944L26.0612 17.3145V23.5679L23.3944 22.1145V21.8012C23.4011 21.6078 23.2944 21.4278 23.121 21.3345L23.121 21.3347ZM27.1346 23.5682V17.3148L31.9348 14.6947V20.9481L27.1346 23.5682Z" stroke="#E5C2B9" stroke-width="0.5" mask="url(#path-1-outside-1_584_1902)"/>
</svg>
