<svg width="22" height="23" viewBox="0 0 22 23" fill="none" xmlns="http://www.w3.org/2000/svg">
<path d="M12.375 4C12.375 3.50272 12.1775 3.02581 11.8258 2.67417C11.4742 2.32254 10.9973 2.125 10.5 2.125C10.0027 2.125 9.52581 2.32254 9.17417 2.67417C8.82254 3.02581 8.625 3.50272 8.625 4H12.375ZM7.375 4C7.375 3.1712 7.70424 2.37634 8.29029 1.79029C8.87634 1.20424 9.6712 0.875 10.5 0.875C11.3288 0.875 12.1237 1.20424 12.7097 1.79029C13.2958 2.37634 13.625 3.1712 13.625 4H19.875C20.0408 4 20.1997 4.06585 20.3169 4.18306C20.4342 4.30027 20.5 4.45924 20.5 4.625C20.5 4.79076 20.4342 4.94973 20.3169 5.06694C20.1997 5.18415 20.0408 5.25 19.875 5.25H18.5575L17.9513 10.495C17.548 10.3842 17.1354 10.3106 16.7188 10.275L17.3 5.25H3.70125L5.17625 18.0375C5.24678 18.6467 5.53881 19.2088 5.99677 19.6168C6.45474 20.0247 7.04668 20.2501 7.66 20.25H10C10.2288 20.6975 10.505 21.1162 10.8212 21.5H7.66C6.73994 21.4999 5.85202 21.1616 5.16517 20.5495C4.47833 19.9373 4.0405 19.094 3.935 18.18L2.4425 5.25H1.125C0.95924 5.25 0.800269 5.18415 0.683058 5.06694C0.565848 4.94973 0.5 4.79076 0.5 4.625C0.5 4.45924 0.565848 4.30027 0.683058 4.18306C0.800269 4.06585 0.95924 4 1.125 4H7.375ZM21.75 17.125C21.75 18.6168 21.1574 20.0476 20.1025 21.1025C19.0476 22.1574 17.6168 22.75 16.125 22.75C14.6332 22.75 13.2024 22.1574 12.1475 21.1025C11.0926 20.0476 10.5 18.6168 10.5 17.125C10.5 15.6332 11.0926 14.2024 12.1475 13.1475C13.2024 12.0926 14.6332 11.5 16.125 11.5C17.6168 11.5 19.0476 12.0926 20.1025 13.1475C21.1574 14.2024 21.75 15.6332 21.75 17.125V17.125ZM18.4425 15.6925C18.5599 15.5751 18.6258 15.416 18.6258 15.25C18.6258 15.084 18.5599 14.9249 18.4425 14.8075C18.3251 14.6901 18.166 14.6242 18 14.6242C17.834 14.6242 17.6749 14.6901 17.5575 14.8075L16.125 16.2413L14.6925 14.8075C14.5751 14.6901 14.416 14.6242 14.25 14.6242C14.084 14.6242 13.9249 14.6901 13.8075 14.8075C13.6901 14.9249 13.6242 15.084 13.6242 15.25C13.6242 15.416 13.6901 15.5751 13.8075 15.6925L15.2413 17.125L13.8075 18.5575C13.7494 18.6156 13.7033 18.6846 13.6718 18.7605C13.6404 18.8364 13.6242 18.9178 13.6242 19C13.6242 19.0822 13.6404 19.1636 13.6718 19.2395C13.7033 19.3154 13.7494 19.3844 13.8075 19.4425C13.8656 19.5006 13.9346 19.5467 14.0105 19.5782C14.0864 19.6096 14.1678 19.6258 14.25 19.6258C14.3322 19.6258 14.4136 19.6096 14.4895 19.5782C14.5654 19.5467 14.6344 19.5006 14.6925 19.4425L16.125 18.0087L17.5575 19.4425C17.6156 19.5006 17.6846 19.5467 17.7605 19.5782C17.8364 19.6096 17.9178 19.6258 18 19.6258C18.0822 19.6258 18.1636 19.6096 18.2395 19.5782C18.3154 19.5467 18.3844 19.5006 18.4425 19.4425C18.5006 19.3844 18.5467 19.3154 18.5782 19.2395C18.6096 19.1636 18.6258 19.0822 18.6258 19C18.6258 18.9178 18.6096 18.8364 18.5782 18.7605C18.5467 18.6846 18.5006 18.6156 18.4425 18.5575L17.0087 17.125L18.4425 15.6925Z" fill="#F07D60"/>
</svg>
