<svg width="18" height="18" viewBox="0 0 18 18" fill="none" xmlns="http://www.w3.org/2000/svg">
<path fill-rule="evenodd" clip-rule="evenodd" d="M12.1738 12.5735V8.28259C12.1702 8.09476 12.068 7.92277 11.9048 7.82983C11.7415 7.73702 11.5414 7.73702 11.3782 7.82983C11.215 7.92277 11.1128 8.09477 11.1093 8.28259V12.5735C11.1066 12.7164 11.1614 12.8544 11.2615 12.9565C11.3617 13.0583 11.4986 13.1159 11.6415 13.1159C11.7845 13.1159 11.9214 13.0583 12.0214 12.9565C12.1216 12.8544 12.1765 12.7164 12.1738 12.5735H12.1738ZM6.89252 12.5735V8.28259C6.88896 8.09476 6.78681 7.92277 6.62353 7.82983C6.46037 7.73702 6.26025 7.73702 6.09697 7.82983C5.93382 7.92277 5.83155 8.09477 5.82799 8.28259V12.5735C5.82529 12.7164 5.88017 12.8544 5.98035 12.9565C6.0804 13.0583 6.21729 13.1159 6.36032 13.1159C6.50322 13.1159 6.64011 13.0583 6.74029 12.9565C6.84035 12.8544 6.89523 12.7164 6.89253 12.5735H6.89252ZM9.53315 13.605V7.08611C9.53585 6.94321 9.48097 6.80522 9.38079 6.70318C9.28074 6.60116 9.14373 6.54371 9.00082 6.54371C8.85791 6.54371 8.72104 6.60116 8.62085 6.70318C8.52079 6.8052 8.46592 6.94319 8.46862 7.08611V13.605C8.46591 13.7479 8.52079 13.8859 8.62085 13.9879C8.72103 14.09 8.85791 14.1474 9.00082 14.1474C9.14373 14.1474 9.28073 14.09 9.38079 13.9879C9.48097 13.8859 9.53585 13.7479 9.53315 13.605ZM4.33045 15.4953L3.58352 4.36173H14.4189L13.6717 15.4953C13.6629 15.6215 13.6065 15.7396 13.5141 15.826C13.4216 15.9124 13.3 15.9607 13.1735 15.961H4.82858C4.70213 15.9607 4.58046 15.9124 4.48802 15.826C4.39557 15.7396 4.33922 15.6215 4.33038 15.4953H4.33045ZM12.2033 1.63876H5.79911V3.29746H12.203V1.63876H12.2033ZM1.01756 3.29746H4.73462V1.10655C4.73462 0.965369 4.79073 0.829956 4.89054 0.730132C4.99047 0.630322 5.12589 0.574219 5.26705 0.574219H12.7351C12.8763 0.574219 13.0117 0.630325 13.1116 0.730132C13.2115 0.829943 13.2676 0.965356 13.2676 1.10655V3.29746H16.9849C17.1278 3.29476 17.2658 3.34964 17.3679 3.44982C17.4699 3.54988 17.5273 3.68676 17.5273 3.82979C17.5273 3.97269 17.4699 4.10958 17.3679 4.20976C17.2658 4.30982 17.1279 4.3647 16.9849 4.362H15.4857L14.7336 15.5669H14.7337C14.7061 15.9622 14.5299 16.3325 14.2405 16.6032C13.9511 16.8739 13.5699 17.025 13.1736 17.026H4.82868C4.4324 17.025 4.0512 16.8739 3.76184 16.6032C3.47235 16.3325 3.29619 15.9622 3.26856 15.5669L2.51647 4.362H1.01723H1.01736C0.874454 4.3647 0.736464 4.30982 0.63443 4.20976C0.53241 4.10958 0.474955 3.9727 0.474955 3.82979C0.474955 3.68677 0.53241 3.54988 0.63443 3.44982C0.736452 3.34964 0.874443 3.29476 1.01736 3.29746H1.01756Z" fill="#F07D60"/>
</svg>
