<svg width="19" height="19" viewBox="0 0 19 19" fill="none" xmlns="http://www.w3.org/2000/svg">
<path d="M7.75 4.25H11.25C11.25 3.78587 11.0656 3.34075 10.7374 3.01256C10.4092 2.68437 9.96413 2.5 9.5 2.5C9.03587 2.5 8.59075 2.68437 8.26256 3.01256C7.93437 3.34075 7.75 3.78587 7.75 4.25ZM6 4.25C6 3.32174 6.36875 2.4315 7.02513 1.77513C7.6815 1.11875 8.57174 0.75 9.5 0.75C10.4283 0.75 11.3185 1.11875 11.9749 1.77513C12.6313 2.4315 13 3.32174 13 4.25H17.375C17.6071 4.25 17.8296 4.34219 17.9937 4.50628C18.1578 4.67038 18.25 4.89294 18.25 5.125C18.25 5.35706 18.1578 5.57962 17.9937 5.74372C17.8296 5.90781 17.6071 6 17.375 6H16.6033L15.828 15.0475C15.7535 15.9212 15.3537 16.735 14.7079 17.3281C14.062 17.9211 13.2171 18.2501 12.3403 18.25H6.65975C5.78292 18.2501 4.93799 17.9211 4.29213 17.3281C3.64627 16.735 3.24653 15.9212 3.172 15.0475L2.39675 6H1.625C1.39294 6 1.17038 5.90781 1.00628 5.74372C0.842187 5.57962 0.75 5.35706 0.75 5.125C0.75 4.89294 0.842187 4.67038 1.00628 4.50628C1.17038 4.34219 1.39294 4.25 1.625 4.25H6ZM12.125 9.5C12.125 9.26794 12.0328 9.04538 11.8687 8.88128C11.7046 8.71719 11.4821 8.625 11.25 8.625C11.0179 8.625 10.7954 8.71719 10.6313 8.88128C10.4672 9.04538 10.375 9.26794 10.375 9.5V13C10.375 13.2321 10.4672 13.4546 10.6313 13.6187C10.7954 13.7828 11.0179 13.875 11.25 13.875C11.4821 13.875 11.7046 13.7828 11.8687 13.6187C12.0328 13.4546 12.125 13.2321 12.125 13V9.5ZM7.75 8.625C7.98206 8.625 8.20462 8.71719 8.36872 8.88128C8.53281 9.04538 8.625 9.26794 8.625 9.5V13C8.625 13.2321 8.53281 13.4546 8.36872 13.6187C8.20462 13.7828 7.98206 13.875 7.75 13.875C7.51794 13.875 7.29538 13.7828 7.13128 13.6187C6.96719 13.4546 6.875 13.2321 6.875 13V9.5C6.875 9.26794 6.96719 9.04538 7.13128 8.88128C7.29538 8.71719 7.51794 8.625 7.75 8.625ZM4.915 14.8988C4.95228 15.3357 5.15227 15.7428 5.47539 16.0393C5.7985 16.3359 6.22118 16.5003 6.65975 16.5H12.3403C12.7785 16.4998 13.2008 16.3352 13.5235 16.0387C13.8463 15.7422 14.046 15.3354 14.0833 14.8988L14.8463 6H4.15375L4.91675 14.8988H4.915Z" fill="#E1E1E1"/>
</svg>
