<svg width="21" height="21" viewBox="0 0 21 21" fill="none" xmlns="http://www.w3.org/2000/svg">
<path fill-rule="evenodd" clip-rule="evenodd" d="M5.25215 11.1214V9.14411C5.25215 8.18816 4.50443 7.41406 3.58105 7.41406H1.6711C0.747723 7.41406 0 8.18816 0 9.14411V11.1214C0 12.0774 0.747723 12.8515 1.6711 12.8515H3.58105C4.50443 12.8515 5.25215 12.0774 5.25215 11.1214ZM3.81973 9.14411V11.1214C3.81973 11.2578 3.71278 11.3685 3.58105 11.3685H1.6711C1.53937 11.3685 1.43242 11.2578 1.43242 11.1214V9.14411C1.43242 9.00773 1.53937 8.89701 1.6711 8.89701H3.58105C3.71278 8.89701 3.81973 9.00774 3.81973 9.14411Z"/>
<path fill-rule="evenodd" clip-rule="evenodd" d="M12.8928 11.1214V9.14411C12.8928 8.18816 12.145 7.41406 11.2217 7.41406H9.31173C8.38835 7.41406 7.64062 8.18816 7.64062 9.14411V11.1214C7.64062 12.0774 8.38835 12.8515 9.31173 12.8515H11.2217C12.145 12.8515 12.8928 12.0774 12.8928 11.1214ZM11.4604 9.14411V11.1214C11.4604 11.2578 11.3534 11.3685 11.2217 11.3685H9.31173C9.17999 11.3685 9.07304 11.2578 9.07304 11.1214V9.14411C9.07304 9.00773 9.18 8.89701 9.31173 8.89701H11.2217C11.3534 8.89701 11.4604 9.00774 11.4604 9.14411Z"/>
<path fill-rule="evenodd" clip-rule="evenodd" d="M20.5295 11.1214V9.14411C20.5295 8.18816 19.7818 7.41406 18.8584 7.41406H16.9484C16.0251 7.41406 15.2773 8.18816 15.2773 9.14411V11.1214C15.2773 12.0774 16.0251 12.8515 16.9484 12.8515H18.8584C19.7818 12.8515 20.5295 12.0774 20.5295 11.1214ZM19.0971 9.14411V11.1214C19.0971 11.2578 18.9901 11.3685 18.8584 11.3685H16.9484C16.8167 11.3685 16.7098 11.2578 16.7098 11.1214V9.14411C16.7098 9.00773 16.8167 8.89701 16.9484 8.89701H18.8584C18.9901 8.89701 19.0971 9.00774 19.0971 9.14411Z"/>
<path fill-rule="evenodd" clip-rule="evenodd" d="M3.34257 4.69612V2.7188C3.34257 2.03656 3.87732 1.48295 4.53631 1.48295H8.35604C9.01503 1.48295 9.54978 2.03656 9.54978 2.7188V4.69612C9.54978 5.10542 9.87063 5.4376 10.266 5.4376C10.6613 5.4376 10.9822 5.10542 10.9822 4.69612V2.7188C10.9822 1.21716 9.80667 0 8.35604 0H4.53631C3.08584 0 1.91016 1.21699 1.91016 2.7188V4.69612C1.91016 5.10542 2.23101 5.4376 2.62637 5.4376C3.02172 5.4376 3.34257 5.10542 3.34257 4.69612Z"/>
<path fill-rule="evenodd" clip-rule="evenodd" d="M9.55078 15.5716V17.5489C9.55078 19.0505 10.7263 20.2677 12.1769 20.2677H15.9967C17.4471 20.2677 18.6228 19.0507 18.6228 17.5489V15.5716C18.6228 15.1622 18.302 14.8301 17.9066 14.8301C17.5113 14.8301 17.1904 15.1622 17.1904 15.5716V17.5489C17.1904 18.2311 16.6557 18.7847 15.9967 18.7847H12.1769C11.5179 18.7847 10.9832 18.2311 10.9832 17.5489V15.5716C10.9832 15.1622 10.6623 14.8301 10.267 14.8301C9.87163 14.8301 9.55078 15.1622 9.55078 15.5716Z"/>
<path fill-rule="evenodd" clip-rule="evenodd" d="M7.85045 3.73786L9.7604 5.71519C10.0402 6.00482 10.4929 6.00482 10.7727 5.71519L12.6826 3.73786C12.9624 3.44922 12.9624 2.97851 12.6826 2.68988C12.4038 2.40025 11.9491 2.40025 11.6703 2.68988L10.2665 4.1422L8.86272 2.68988C8.58391 2.40025 8.12924 2.40025 7.85045 2.68988C7.57068 2.97853 7.57068 3.44924 7.85045 3.73786Z"/>
<path fill-rule="evenodd" clip-rule="evenodd" d="M16.4994 17.5785L17.9032 16.1262L19.3071 17.5785C19.5859 17.8681 20.0405 17.8681 20.3193 17.5785C20.5991 17.2898 20.5991 16.8191 20.3193 16.5305L18.4094 14.5532C18.1296 14.2635 17.6769 14.2635 17.3971 14.5532L15.4872 16.5305C15.2074 16.8191 15.2074 17.2898 15.4872 17.5785C15.766 17.8681 16.2206 17.8681 16.4994 17.5785Z"/>
</svg>
