<svg width="10" height="10" viewBox="0 0 10 10" fill="none" xmlns="http://www.w3.org/2000/svg">
<path d="M1.33978 8.6589L2.3547 8.51373L8.58935 2.27992C8.6481 2.22318 8.69496 2.1553 8.7272 2.08025C8.75944 2.0052 8.7764 1.92448 8.77711 1.84281C8.77782 1.76113 8.76226 1.68013 8.73133 1.60453C8.7004 1.52893 8.65473 1.46025 8.59698 1.40249C8.53922 1.34474 8.47055 1.29906 8.39495 1.26813C8.31936 1.2372 8.23836 1.22164 8.15669 1.22235C8.07502 1.22306 7.99431 1.24003 7.91926 1.27226C7.84422 1.3045 7.77634 1.35137 7.7196 1.41012L1.48372 7.64393L1.33855 8.6589H1.33978ZM9.4591 0.539082C9.63058 0.71046 9.76661 0.913949 9.85942 1.13792C9.95223 1.3619 10 1.60196 10 1.8444C10 2.08685 9.95223 2.32691 9.85942 2.55089C9.76661 2.77486 9.63058 2.97835 9.4591 3.14973L3.08052 9.52871C2.98646 9.62312 2.86428 9.68443 2.73237 9.70341L0.70254 9.99375C0.607942 10.0073 0.511481 9.99869 0.420805 9.9685C0.33013 9.93832 0.247736 9.88741 0.180159 9.81983C0.112582 9.75225 0.0616808 9.66985 0.0314931 9.57917C0.00130536 9.48849 -0.0073388 9.39202 0.00624678 9.29742L0.296574 7.26746C0.315213 7.1357 0.376077 7.01353 0.470033 6.91929L6.84985 0.540312C7.19589 0.194351 7.66517 0 8.15448 0C8.64378 0 9.11306 0.194351 9.4591 0.540312V0.539082Z" fill="#E1E1E1"/>
</svg>
