<svg width="24" height="20" viewBox="0 0 24 20" fill="none" xmlns="http://www.w3.org/2000/svg">
<path d="M11.9374 0.00132029C11.4809 0.0206959 11.0666 0.259785 10.8391 0.634872L0.177199 18.1078C-0.0601899 18.4992 -0.0589959 18.9806 0.180388 19.3709C0.419773 19.7611 0.861078 20.0009 1.33807 20H22.6619C23.1389 20.001 23.5802 19.7611 23.8196 19.3709C24.059 18.9806 24.0602 18.4992 23.8228 18.1078L13.1522 0.634872C13.0306 0.434142 12.853 0.268872 12.6388 0.157077C12.4247 0.0454749 12.1821 -0.00858019 11.9378 0.00110686L11.9374 0.00132029ZM12 5.27885C12.3157 5.27885 12.5714 5.52763 12.5714 5.83433V13.6118C12.5714 13.9187 12.3155 14.1672 12 14.1672C11.6842 14.1672 11.4285 13.9185 11.4285 13.6118V5.83433C11.4285 5.52743 11.6844 5.27885 12 5.27885ZM12 15.2784C12.4733 15.2784 12.8572 15.6516 12.8572 16.1117C12.8572 16.5719 12.4734 16.9451 12 16.9451C11.5266 16.9451 11.1427 16.5721 11.1427 16.1117C11.1427 15.6516 11.5266 15.2784 12 15.2784Z" fill="#CC2222"/>
</svg>
