<svg viewBox="0 0 119 127" xmlns="http://www.w3.org/2000/svg">
<path d="M118.295 38.1231C118.831 37.5333 118.778 36.6398 118.188 36.1036C117.92 35.8713 117.58 35.7283 117.241 35.7283H104.266C103.837 35.7283 103.444 35.907 103.176 36.2287L81.2125 62.1776C80.6943 62.7852 79.8007 62.8567 79.1931 62.3384C79.0322 62.1954 78.9071 62.0346 78.8178 61.838L67.4696 36.5861C67.2373 36.0679 66.7369 35.7462 66.165 35.7462H36.0344L36.1952 34.9063L37.6249 27.3468C39.5014 17.4462 44.4159 12.7997 52.9583 12.7997C56.2823 12.7997 59.3026 13.1035 61.6794 13.6397L64.1992 1.70177C60.1604 0.861827 57.9086 0.611633 54.388 0.611633C35.9272 0.611633 26.4376 8.52853 22.9527 26.9358L21.2729 35.7641H3.83068C3.15158 35.7641 2.56183 36.2466 2.43673 36.9078L0.506654 46.1651C0.345814 46.9335 0.846206 47.702 1.61466 47.8628C1.70402 47.8807 1.81124 47.8985 1.9006 47.8985H18.753L2.84777 124.726C2.68693 125.495 3.18732 126.263 3.95578 126.424C4.04513 126.442 4.15236 126.46 4.24171 126.46H16.0724C16.7515 126.46 17.3412 125.977 17.4663 125.316L33.4967 47.9164H57.7656L69.9537 72.7751C70.2039 73.2934 70.1324 73.9189 69.7393 74.3478L37.4641 110.626C36.9458 111.216 36.9994 112.127 37.5892 112.646C37.8572 112.878 38.1968 113.003 38.5363 113.003H51.5286C51.9575 113.003 52.3507 112.824 52.6188 112.503L74.7253 86.2857C75.2257 85.678 76.1371 85.6066 76.7447 86.1069C76.9056 86.2499 77.0307 86.4108 77.12 86.6073L88.8792 112.109C89.1115 112.61 89.6119 112.949 90.1838 112.949H101.729C102.515 112.949 103.158 112.306 103.158 111.52C103.158 111.305 103.105 111.091 103.015 110.894L86.002 75.3485C85.7518 74.8303 85.8411 74.2048 86.2343 73.7759L118.295 38.1231Z" />
</svg>
