<svg width="9" height="9" viewBox="0 0 9 9" fill="none" xmlns="http://www.w3.org/2000/svg">
<path d="M0.518186 0.517209C0.57334 0.461916 0.638861 0.418046 0.710996 0.388113C0.783131 0.358181 0.860462 0.342773 0.938561 0.342773C1.01666 0.342773 1.09399 0.358181 1.16613 0.388113C1.23826 0.418046 1.30378 0.461916 1.35894 0.517209L4.50106 3.66052L7.64319 0.517209C7.69839 0.462005 7.76393 0.418214 7.83606 0.388338C7.90818 0.358462 7.98549 0.343084 8.06356 0.343084C8.14163 0.343084 8.21894 0.358462 8.29107 0.388338C8.36319 0.418214 8.42873 0.462005 8.48394 0.517209C8.53914 0.572414 8.58293 0.637951 8.61281 0.710079C8.64268 0.782207 8.65806 0.859514 8.65806 0.937585C8.65806 1.01566 8.64268 1.09296 8.61281 1.16509C8.58293 1.23722 8.53914 1.30276 8.48394 1.35796L5.34062 4.50008L8.48394 7.64221C8.53914 7.69741 8.58293 7.76295 8.61281 7.83508C8.64268 7.90721 8.65806 7.98451 8.65806 8.06258C8.65806 8.14066 8.64268 8.21796 8.61281 8.29009C8.58293 8.36222 8.53914 8.42776 8.48394 8.48296C8.42873 8.53816 8.36319 8.58195 8.29107 8.61183C8.21894 8.64171 8.14163 8.65708 8.06356 8.65708C7.98549 8.65708 7.90818 8.64171 7.83606 8.61183C7.76393 8.58195 7.69839 8.53816 7.64319 8.48296L4.50106 5.33965L1.35894 8.48296C1.30373 8.53816 1.23819 8.58195 1.16607 8.61183C1.09394 8.64171 1.01663 8.65708 0.938561 8.65708C0.86049 8.65708 0.783184 8.64171 0.711056 8.61183C0.638928 8.58195 0.57339 8.53816 0.518186 8.48296C0.462982 8.42776 0.419191 8.36222 0.389315 8.29009C0.359438 8.21796 0.344061 8.14066 0.344061 8.06258C0.344061 7.98451 0.359438 7.90721 0.389315 7.83508C0.419191 7.76295 0.462982 7.69741 0.518186 7.64221L3.6615 4.50008L0.518186 1.35796C0.462892 1.30281 0.419022 1.23728 0.38909 1.16515C0.359157 1.09301 0.34375 1.01568 0.34375 0.937585C0.34375 0.859486 0.359157 0.782154 0.38909 0.71002C0.419022 0.637885 0.462892 0.572364 0.518186 0.517209Z" fill="#333333"/>
</svg>
