<svg width="21" height="21" viewBox="0 0 21 21" fill="none" xmlns="http://www.w3.org/2000/svg">
<path d="M16.4836 1.2705L10.5003 7.25386C8.50526 5.26017 6.51058 3.26517 4.5169 1.2705C0.194179 0.52533 0.525257 0.194252 1.27043 4.51763C3.26444 6.51066 5.2601 8.50599 7.25313 10.5L1.27043 16.4827C0.525257 20.8054 0.194179 20.4743 4.5169 19.7295C6.51091 17.7348 8.50559 15.7398 10.5003 13.7458C12.4953 15.7405 14.4883 17.7348 16.4836 19.7295C20.806 20.4743 20.4749 20.8054 19.7304 16.4837C17.7354 14.4884 15.7404 12.4943 13.7457 10.5C15.7407 8.50533 17.7357 6.51033 19.7304 4.51664C20.4749 0.194252 20.806 0.52533 16.4836 1.2705Z" fill="#CC2222"/>
</svg>
