<svg width="22" height="23" viewBox="0 0 22 23" fill="none" xmlns="http://www.w3.org/2000/svg">
<path d="M10.8703 15.7047L10.8705 15.7049C11.0859 15.9191 11.4341 15.9191 11.6495 15.7049L11.6497 15.7047L15.1165 12.24H17.12V16.265H14.2525C13.9474 16.265 13.7 16.5124 13.7 16.8175V21.9475C13.7 22.094 13.7582 22.2346 13.8618 22.3382C13.9654 22.4418 14.106 22.5 14.2525 22.5H21.0925C21.239 22.5 21.3796 22.4418 21.4832 22.3382C21.5868 22.2346 21.645 22.094 21.645 21.9475V16.8175C21.645 16.671 21.5868 16.5304 21.4832 16.4268C21.3796 16.3232 21.239 16.265 21.0925 16.265H18.225V11.6875C18.225 11.541 18.1668 11.4004 18.0632 11.2968C17.9596 11.1932 17.819 11.135 17.6725 11.135H15.1165L11.8125 7.83097V7.11H15.1075C15.254 7.11 15.3946 7.0518 15.4982 6.94819C15.6018 6.84458 15.66 6.704 15.66 6.5575V1.4275C15.66 1.281 15.6018 1.14042 15.4982 1.03681C15.3946 0.933201 15.254 0.875 15.1075 0.875H7.4125C7.10739 0.875 6.86 1.12239 6.86 1.4275V6.5575C6.86 6.704 6.9182 6.84458 7.02181 6.94819C7.12542 7.0518 7.266 7.11 7.4125 7.11H10.7075V7.83097L7.40347 11.135H4.8475C4.54239 11.135 4.295 11.3824 4.295 11.6875V16.265H1.4275C1.12239 16.265 0.875 16.5124 0.875 16.8175V21.9475C0.875 22.094 0.933199 22.2346 1.03681 22.3382C1.14042 22.4418 1.281 22.5 1.4275 22.5H8.2675C8.414 22.5 8.55458 22.4418 8.65819 22.3382C8.7618 22.2346 8.82 22.094 8.82 21.9475V16.8175C8.82 16.671 8.7618 16.5304 8.65819 16.4268C8.55458 16.3232 8.414 16.265 8.2675 16.265H5.4V12.24H7.4035L10.8703 15.7047ZM7.965 1.98H14.555V6.005H7.965V1.98ZM1.98 21.395V17.37H7.715V21.395H1.98ZM14.1014 11.6874L11.2599 14.533L8.41433 11.6874L11.2578 8.84386L14.1014 11.6874ZM14.805 21.395V17.37H20.54V21.395H14.805Z" fill="#E1E1E1" stroke="#E1E1E1" stroke-width="0.25"/>
</svg>
