<svg width="21" height="21" viewBox="0 0 21 21" fill="none" xmlns="http://www.w3.org/2000/svg">
<path d="M10.4631 3.30119C10.4122 3.4291 10.2873 3.51955 10.1413 3.51966L10.1415 3.51966L10.141 3.39466V3.51966L6.25893 3.53356L6.25848 3.53357C6.06719 3.53357 5.91211 3.37837 5.91211 3.18704V1.22184V1.22162H6.03711C6.03665 1.10699 6.12362 1.01091 6.23778 1.00025L10.4631 3.30119ZM10.4631 3.30119L10.9396 4.78712C10.9581 4.89355 11.0254 4.98553 11.1218 5.03524L11.1225 5.03556C11.2179 5.08412 11.33 5.08575 11.4266 5.04045L15.0355 3.88347C15.1195 3.86867 15.1945 3.82352 15.2469 3.75767L15.263 3.7566L15.2936 3.6875C15.3349 3.59422 15.333 3.48736 15.2884 3.39569L14.5722 1.14334C14.527 0.991705 14.3846 0.889769 14.2262 0.89603L14.2262 0.895962L14.2221 0.896259C14.1901 0.898579 14.1582 0.905372 14.1276 0.916812L10.4875 2.08464V1.2216C10.4875 1.0301 10.3323 0.875232 10.141 0.875232H6.26102C6.25144 0.874884 6.24181 0.87493 6.23225 0.875355L6.19671 0.876934L6.1909 0.880898L10.4631 3.30119ZM6.605 1.56813H9.79448V2.82726L6.605 2.84015V1.56813ZM10.9833 2.65242L14.0187 1.68336L14.5381 3.31396L11.5029 4.28944L10.9833 2.65242Z" fill="#F07D60" stroke="#F07D60" stroke-width="0.25"/>
<path d="M11.3195 5.63251L11.3195 5.63251L11.3188 5.63391C11.3191 5.63334 11.3194 5.63286 11.3196 5.63252C11.3197 5.63217 11.3198 5.63197 11.3198 5.63197C11.3198 5.63197 11.3198 5.632 11.3198 5.63207L11.3195 5.63251ZM11.318 5.63537L11.3126 5.64514L11.3113 5.64925C11.2683 5.74221 11.2686 5.84956 11.3124 5.94226L11.7501 7.30545C11.7691 7.40951 11.8347 7.49927 11.9283 7.54894C11.9302 7.55002 11.9318 7.55088 11.9329 7.55147L11.9352 7.5527C11.9356 7.55293 11.9358 7.55301 11.9358 7.55303L11.9358 7.55304L11.9358 7.55309L11.9391 7.55473C12.0342 7.6024 12.1457 7.60353 12.2415 7.55853L15.8478 6.40545C15.9532 6.38645 16.044 6.31969 16.0935 6.22453L16.0963 6.2196L16.0963 6.21963L16.098 6.21635C16.1456 6.1214 16.147 6.00999 16.1021 5.91408L15.6662 4.5479C15.6609 4.51854 15.6518 4.49029 15.6394 4.46375L15.6361 4.45333H15.6343C15.6016 4.38903 15.5492 4.33557 15.4833 4.30187L15.4832 4.30185L15.4777 4.29891L15.4777 4.29891L15.4776 4.29885C15.477 4.29859 15.4752 4.29769 15.4727 4.29652C15.4231 4.27242 15.3686 4.26062 15.3137 4.2618L15.2866 4.26238L15.2831 4.26404C15.2456 4.26828 15.2088 4.27861 15.1743 4.29491L11.5663 5.4501C11.46 5.46921 11.3689 5.53676 11.3195 5.63251L11.3192 5.63306L11.318 5.63537ZM12.3176 6.80685L12.0643 6.01817L15.0978 5.0471L15.3498 5.83727L12.3176 6.80685Z" fill="#F07D60" stroke="#F07D60" stroke-width="0.25"/>
<path d="M16.463 7.05154L20.1075 18.4328C20.1075 18.4328 20.1075 18.4328 20.1075 18.4329C20.1558 18.5836 20.0954 18.743 19.9701 18.8266V18.8407L19.8832 18.8686L16.1893 20.0511L16.189 20.0512C16.1019 20.0789 16.0068 20.0712 15.925 20.0291L15.9247 20.029C15.8433 19.9868 15.7817 19.9142 15.7536 19.8267L15.7536 19.8266L12.1109 8.44413C12.0643 8.34462 12.0674 8.22844 12.1202 8.13129C12.17 8.03714 12.2602 7.97118 12.3648 7.95223L15.9706 6.79721C15.979 6.79323 15.9876 6.7896 15.9962 6.78632L15.998 6.76661L16.1094 6.76378C16.1667 6.76233 16.2231 6.77522 16.2737 6.80068L16.2245 6.89876L16.2324 6.89947L16.2815 6.8048C16.2822 6.80518 16.2829 6.80556 16.2837 6.80594M16.463 7.05154L16.3411 6.95499H16.3409H16.2778C16.2651 6.94239 16.2508 6.93127 16.2351 6.92197L16.2371 6.90017L16.2371 6.89988L16.2332 6.89954L16.286 6.80725C16.2852 6.80681 16.2844 6.80637 16.2837 6.80594M16.463 7.05154C16.4443 6.94689 16.3785 6.85597 16.2837 6.80594M16.463 7.05154L16.2244 6.89875L16.2735 6.80058C16.2771 6.80236 16.2804 6.80413 16.2837 6.80594M12.8628 8.52029L15.8948 7.54904L19.342 18.3144L16.308 19.2856L12.8628 8.52029Z" fill="#F07D60" stroke="#F07D60" stroke-width="0.25"/>
<path d="M1.36672 0.876128L1.36674 0.875977H1.22444C1.03319 0.875977 0.878159 1.03111 0.877918 1.22219V1.22235V3.72624C0.864014 3.83286 0.90025 3.94014 0.976656 4.01646L0.980486 4.02044L0.980491 4.02045L0.982345 4.0223L0.98233 4.02232L0.984019 4.02394C1.05985 4.09698 1.16458 4.13148 1.26872 4.11808H5.05708C5.16281 4.13196 5.26941 4.0963 5.34551 4.02104L5.34718 4.01949L5.34777 4.01892L5.34786 4.01884L5.38844 3.98195V3.97107C5.43814 3.90047 5.46003 3.8132 5.44853 3.72639V1.2225C5.44853 1.03127 5.29339 0.876128 5.10216 0.876128H1.36672ZM1.57081 1.56886H4.75563V3.42487H1.57081V1.56886Z" fill="#F07D60" stroke="#F07D60" stroke-width="0.25"/>
<path d="M0.979017 5.41037L0.978853 5.41021C0.912471 5.34503 0.875 5.2559 0.875 5.16282C0.875 5.06965 0.912539 4.98071 0.978851 4.9156L0.979017 5.41037ZM0.979017 5.41037C1.04503 5.47494 1.1341 5.51069 1.2267 5.50935M0.979017 5.41037L1.22569 5.38435M5.10242 5.50935C5.19494 5.51069 5.28418 5.475 5.35026 5.41037L5.35043 5.4102L5.10343 5.38435M5.10242 5.50935C5.102 5.50934 5.10158 5.50933 5.10116 5.50933L5.10343 5.38435M5.10242 5.50935H5.10343V5.38435M5.10242 5.50935H1.2267M5.10343 5.38435H1.22569M1.2267 5.50935C1.22712 5.50934 1.22754 5.50933 1.22796 5.50933L1.22569 5.38435M1.2267 5.50935H1.22569V5.38435M5.10228 4.81645C5.19498 4.81492 5.28434 4.85071 5.35042 4.9156C5.35042 4.9156 5.35043 4.9156 5.35043 4.9156L5.26288 5.00476L5.10228 4.81645ZM5.10228 4.81645H1.22685M5.10228 4.81645L0.978851 4.9156C1.04487 4.85078 1.13405 4.81491 1.22685 4.81645M1.22685 4.81645H1.22569V4.94145L1.22829 4.81648C1.22781 4.81647 1.22733 4.81646 1.22685 4.81645Z" fill="#F07D60" stroke="#F07D60" stroke-width="0.25"/>
<path d="M5.25853 6.36993C5.30039 6.41149 5.32387 6.46803 5.32387 6.52704C5.32387 6.58605 5.30039 6.64259 5.25853 6.6843C5.21666 6.72586 5.15982 6.74903 5.1008 6.74856M5.25853 6.36993L1.22307 6.30567C1.16406 6.30521 1.10736 6.32838 1.0655 6.36993C1.02363 6.41149 1 6.46803 1 6.52704C1 6.58605 1.02364 6.64259 1.0655 6.6843C1.10736 6.72586 1.16406 6.74903 1.22307 6.74856H5.1008M5.25853 6.36993C5.21666 6.32838 5.15982 6.30521 5.1008 6.30567V6.18067H5.10037H1.2235M5.25853 6.36993L1.2235 6.18067M5.1008 6.74856L5.09982 6.87356C5.10001 6.87356 5.10019 6.87356 5.10037 6.87356H5.1008V6.74856ZM1.2235 6.18067C1.13126 6.18009 1.04276 6.21638 0.977437 6.28122C0.912018 6.34615 0.875 6.43459 0.875 6.52704C0.875 6.61953 0.912044 6.70786 0.977269 6.77285L0.977436 6.77302C1.04276 6.83786 1.13127 6.87414 1.22351 6.87356H1.22307L1.2235 6.18067Z" fill="#F07D60" stroke="#F07D60" stroke-width="0.25"/>
<path d="M0.877812 19.3804H0.880085L0.877812 19.3804C0.878054 19.5716 1.03302 19.7268 1.22434 19.7268H5.10223H5.10239C5.29362 19.7265 5.4486 19.5716 5.4486 19.3802V7.96274C5.46046 7.87252 5.43633 7.78176 5.38233 7.70971V7.63122H5.30166C5.23111 7.5815 5.14403 7.55979 5.05773 7.57098H1.26973C1.25339 7.56879 1.23659 7.56769 1.21964 7.56789L1.10584 7.56923L1.10416 7.58976C1.05848 7.60669 1.01645 7.63323 0.981146 7.66814L0.979477 7.6697C0.979161 7.67 0.978972 7.67018 0.978875 7.67027L0.938212 7.70724V7.71807C0.888533 7.78857 0.866768 7.87556 0.877812 7.96186V19.3802V19.3804ZM0.971875 7.67732C0.971517 7.67769 0.97116 7.67806 0.970804 7.67843C0.971768 7.67738 0.972653 7.67644 0.973344 7.67573L0.971875 7.67732ZM1.57086 8.2643H4.75567V19.034H1.57086V8.2643Z" fill="#F07D60" stroke="#F07D60" stroke-width="0.25"/>
<path d="M6.0355 4.44748L6.03534 4.44732C5.9688 4.38198 5.93164 4.29279 5.93164 4.19993C5.93164 4.10715 5.96875 4.01789 6.03542 3.95263M6.0355 4.44748L6.28218 3.97856M6.0355 4.44748C6.10155 4.51208 6.19078 4.5478 6.28319 4.54646M6.0355 4.44748L6.28218 4.42146M6.03542 3.95263C6.10146 3.88783 6.19077 3.85202 6.28334 3.85356M6.03542 3.95263C6.03539 3.95265 6.03536 3.95268 6.03534 3.95271L6.12291 4.0419L6.0355 3.95254C6.03548 3.95257 6.03545 3.9526 6.03542 3.95263ZM6.28334 3.85356C6.28382 3.85357 6.2843 3.85358 6.28478 3.85359L6.28218 3.97856M6.28334 3.85356H6.28218V3.97856M6.28334 3.85356H10.1013M6.28218 3.97856H10.1025M10.1013 3.85356C10.1008 3.85357 10.1003 3.85358 10.0999 3.85359L10.1025 3.97856M10.1013 3.85356H10.1025V3.97856M10.1013 3.85356C10.1941 3.85202 10.2833 3.88789 10.3493 3.95271L10.2617 4.0419L10.3491 3.95254C10.4157 4.01766 10.4531 4.1069 10.4531 4.19993C10.4531 4.29301 10.4157 4.38214 10.3493 4.44731L10.3491 4.44747C10.2831 4.51205 10.194 4.5478 10.1014 4.54646M10.1025 3.97856V4.42146M10.1014 4.54646C10.101 4.54645 10.1006 4.54644 10.1002 4.54644L10.1025 4.42146M10.1014 4.54646H10.1025V4.42146M10.1014 4.54646H6.28319M10.1025 4.42146H6.28218M6.28319 4.54646C6.28361 4.54645 6.28403 4.54644 6.28445 4.54644L6.28218 4.42146M6.28319 4.54646H6.28218V4.42146" fill="#F07D60" stroke="#F07D60" stroke-width="0.25"/>
<path d="M6.02416 8.66257L6.02416 8.66257C6.08948 8.59773 6.17798 8.56144 6.27022 8.56202M6.02416 8.66257L6.26979 8.68702M6.02416 8.66257L6.02399 8.66273C5.9586 8.72788 5.92188 8.81628 5.92188 8.90854C5.92188 9.0007 5.95864 9.08908 6.02399 9.1542L6.02416 9.15436C6.08948 9.21921 6.17799 9.25549 6.27023 9.25491M6.02416 8.66257L6.26979 9.12991M6.27022 8.56202C6.2704 8.56202 6.27059 8.56202 6.27077 8.56202L6.26979 8.68702M6.27022 8.56202H6.26979V8.68702M6.27022 8.56202H10.1471M6.26979 8.68702H10.1475M10.1471 8.56202C10.1469 8.56202 10.1467 8.56202 10.1465 8.56202L10.1475 8.68702M10.1471 8.56202H10.1475V8.68702M10.1471 8.56202C10.2393 8.56144 10.3278 8.59772 10.3932 8.66257L10.3935 8.6629L10.3935 8.6629C10.4584 8.72783 10.4954 8.81608 10.4954 8.90854C10.4954 9.0009 10.4584 9.08913 10.3935 9.15404L10.3932 9.15437C10.3278 9.21921 10.2393 9.25549 10.1471 9.25491M10.1475 8.68702V9.12991M10.1471 9.25491C10.1469 9.25491 10.1467 9.25491 10.1465 9.25491L10.1475 9.12991M10.1471 9.25491H10.1475V9.12991M10.1471 9.25491H6.27023M10.1475 9.12991H6.26979M6.27023 9.25491C6.27041 9.25491 6.27059 9.25491 6.27077 9.25491L6.26979 9.12991M6.27023 9.25491H6.26979V9.12991" fill="#F07D60" stroke="#F07D60" stroke-width="0.25"/>
<path d="M6.26931 4.8844C6.28203 4.88472 6.29463 4.88574 6.30696 4.88739H10.0946C10.1955 4.87426 10.2971 4.90608 10.3725 4.97445L10.3741 4.97551L10.3809 4.98239L10.3898 4.99094L10.3912 4.99304C10.4648 5.06904 10.4995 5.17438 10.4857 5.2792V7.44834C10.4969 7.53482 10.475 7.62167 10.4256 7.6921V7.69956L10.389 7.73617L10.3889 7.73623L10.3887 7.73639L10.388 7.73711L10.3841 7.74078C10.3839 7.74095 10.3837 7.74113 10.3835 7.74133C10.3835 7.74134 10.3835 7.74134 10.3835 7.74135M6.26931 4.8844L10.3003 7.64794V7.65736V7.65737V7.77294H10.3003H10.3003H10.3004L10.3008 7.77293L10.3028 7.77291C10.3044 7.77288 10.3081 7.77278 10.3128 7.77231C10.3239 7.77121 10.3394 7.76816 10.3563 7.75972C10.3702 7.75277 10.3797 7.74474 10.3835 7.74135M6.26931 4.8844L6.26759 4.88411L6.25615 4.88429C6.16677 4.88575 6.08154 4.92181 6.01814 4.98449L6.01814 4.98449L6.01763 4.985C6.01766 4.98497 6.01768 4.98494 6.01768 4.98494C6.01768 4.98494 6.01746 4.98516 6.0166 4.98599L6.01192 4.99056L6.01191 4.99055L6.01096 4.99152C5.93651 5.0676 5.90127 5.17348 5.91505 5.27878M6.26931 4.8844L5.91505 5.27878M10.3835 7.74135C10.3835 7.74134 10.3835 7.74133 10.3835 7.74133L6.29695 7.71421M10.3835 7.74135C10.3071 7.81729 10.2002 7.85316 10.0941 7.83921M10.0941 7.83921H10.1032V7.71421L10.0828 7.83754C10.0866 7.83816 10.0903 7.83872 10.0941 7.83921ZM10.0941 7.83921H6.30604M6.30604 7.83921C6.30979 7.83872 6.31354 7.83816 6.31728 7.83754L6.29695 7.71421M6.30604 7.83921C6.20093 7.853 6.09515 7.81769 6.01919 7.74359L5.98148 7.7068V7.70063M6.30604 7.83921H6.29695V7.71421M6.29695 7.71421L5.98148 7.70063M5.98148 7.70063C5.99107 7.71343 6.0016 7.72563 6.01303 7.73713L6.01331 7.73741C6.01318 7.73728 6.01307 7.73717 6.01303 7.73713M5.98148 7.70063L6.01302 7.73712C6.01302 7.73712 6.01302 7.73712 6.01303 7.73713M5.98148 7.70063C5.9275 7.62861 5.90319 7.53777 5.91505 7.44745M5.98148 7.70063L5.91505 7.45669V7.45654V7.44745M5.98148 7.70063V7.65412V7.65396H6.09672H6.09675H6.10648L6.10633 7.65412L6.01808 7.74234L6.01367 7.7378C6.01327 7.73738 6.01308 7.73719 6.01303 7.73713M5.98148 7.70063L6.01303 7.73713M5.91505 7.44745V5.27878M5.91505 7.44745V5.27878M10.3905 7.73443C10.3905 7.73442 10.3905 7.73441 10.3906 7.73439L10.3906 7.7344L10.3905 7.73443ZM6.60795 5.58024H9.79276V7.14614H6.60795V5.58024Z" fill="#F07D60" stroke="#F07D60" stroke-width="0.25"/>
<path d="M10.1393 19.6017V19.7267H10.1391H6.26157C6.07029 19.7267 5.91504 19.5718 5.91504 19.3803V10.3475C5.90126 10.2423 5.9365 10.1363 6.01095 10.0602L6.0119 10.0592L6.0119 10.0592L6.01658 10.0547C6.01744 10.0539 6.01767 10.0536 6.01767 10.0536C6.01767 10.0536 6.01764 10.0537 6.01761 10.0537L6.01812 10.0532L6.01812 10.0532C6.08169 9.99034 6.16699 9.95459 6.25613 9.95314L6.36851 9.95131L6.3693 9.95769L10.4858 10.3478M10.1393 19.6017C10.2617 19.6019 10.3608 19.5027 10.3608 19.3803V10.3388M10.1393 19.6017H6.26157C6.13922 19.6017 6.04004 19.5027 6.04004 19.3803V10.3384L10.1393 19.6017ZM10.3608 10.3388L10.4842 10.359C10.4848 10.3553 10.4853 10.3516 10.4858 10.3478M10.3608 10.3388H10.4858V10.3478M10.3608 10.3388C10.3724 10.2681 10.3491 10.1959 10.2981 10.1454M10.4858 10.3478C10.4997 10.2419 10.4639 10.1351 10.3884 10.0589L10.3884 10.0589L10.3922 10.0631L10.2981 10.1454M10.2981 10.1454L10.3456 10.0974L10.3861 10.0566C10.3868 10.0574 10.3876 10.0581 10.3883 10.0588C10.3877 10.0581 10.3873 10.0577 10.3879 10.0583L10.3884 10.0589L10.2949 10.1419L10.2981 10.1454ZM6.60793 10.6491H9.79275V19.0337H6.60793V10.6491Z" fill="#F07D60" stroke="#F07D60" stroke-width="0.25"/>
</svg>
