<svg width="34" height="34" viewBox="0 0 34 34" fill="none" xmlns="http://www.w3.org/2000/svg">
<mask id="path-1-outside-1_584_1916" maskUnits="userSpaceOnUse" x="0" y="0" width="34" height="34" fill="black">
<rect fill="white" width="34" height="34"/>
<path d="M29.8943 17.5337C30.0633 18.0118 30.4491 18.3815 30.9341 18.53C31.4189 18.6783 31.9457 18.5881 32.3534 18.2865C32.7611 17.9847 33.0017 17.5078 33.0017 17.0006C33.0017 16.4934 32.7611 16.0164 32.3534 15.7146C31.9457 15.4131 31.4189 15.3229 30.9341 15.4712C30.4491 15.6197 30.0632 15.9893 29.8943 16.4675H26.5974V11.8898L27.8843 10.6029H28.828C28.997 11.0811 29.3828 11.4507 29.8678 11.5993C30.3527 11.7476 30.8794 11.6573 31.2871 11.3558C31.6948 11.054 31.9354 10.577 31.9354 10.0699C31.9354 9.56267 31.6948 9.0857 31.2871 8.78391C30.8794 8.48236 30.3527 8.39215 29.8678 8.54043C29.3828 8.68895 28.997 9.05858 28.828 9.53676H27.6637C27.5223 9.53676 27.3866 9.59294 27.2867 9.6929L25.9654 11.0141L22.8654 9.37259V6.33795H24.5628C24.7318 6.81611 25.1176 7.18573 25.6027 7.33428C26.0875 7.48256 26.6142 7.39236 27.0219 7.0908C27.4296 6.789 27.6703 6.31204 27.6703 5.80486C27.6703 5.29767 27.4297 4.82071 27.0219 4.51892C26.6142 4.21737 26.0875 4.12716 25.6027 4.27544C25.1176 4.42396 24.7318 4.79358 24.5628 5.27177H22.3322C22.0378 5.27177 21.7991 5.5105 21.7991 5.80491V8.80812L17.534 6.55131V4.10745C18.0121 3.93847 18.3817 3.55265 18.5303 3.06761C18.6786 2.58279 18.5884 2.05605 18.2868 1.64836C17.985 1.24065 17.5081 1 17.0009 1C16.4937 1 16.0167 1.24063 15.7149 1.64836C15.4134 2.05607 15.3232 2.58279 15.4714 3.06761C15.62 3.55267 15.9896 3.93849 16.4678 4.10745V6.55131L12.2026 8.80909V5.80491C12.2026 5.66354 12.1465 5.52787 12.0465 5.42791C11.9466 5.32794 11.8109 5.27177 11.6695 5.27177H9.4389C9.26992 4.79361 8.8841 4.42399 8.39906 4.27544C7.91424 4.12716 7.3875 4.21736 6.97981 4.51892C6.5721 4.82072 6.33145 5.29767 6.33145 5.80486C6.33145 6.31204 6.57208 6.78901 6.97981 7.0908C7.38752 7.39235 7.91424 7.48256 8.39906 7.33428C8.88413 7.18576 9.26994 6.81613 9.4389 6.33795H11.1364V9.37259L8.03604 11.0141L6.71483 9.6929H6.71506C6.6151 9.59294 6.47943 9.53676 6.33806 9.53676H5.17374C5.00475 9.0586 4.61893 8.68898 4.1339 8.54043C3.64907 8.39215 3.12233 8.48236 2.71464 8.78391C2.30693 9.08571 2.06628 9.56267 2.06628 10.0699C2.06628 10.577 2.30691 11.054 2.71464 11.3558C3.12235 11.6573 3.64907 11.7476 4.1339 11.5993C4.61896 11.4508 5.00478 11.0811 5.17374 10.6029H6.11743L7.40434 11.8898V16.4675H4.10745C3.93847 15.9893 3.55265 15.6197 3.06761 15.4712C2.58279 15.3229 2.05605 15.4131 1.64836 15.7146C1.24065 16.0164 1 16.4934 1 17.0006C1 17.5078 1.24063 17.9847 1.64836 18.2865C2.05607 18.5881 2.58279 18.6783 3.06761 18.53C3.55268 18.3815 3.93849 18.0119 4.10745 17.5337H7.40434V22.1113L6.11743 23.3982H5.17374C5.00475 22.9201 4.61893 22.5504 4.1339 22.4019C3.64907 22.2536 3.12233 22.3438 2.71464 22.6454C2.30693 22.9472 2.06628 23.4241 2.06628 23.9313C2.06628 24.4385 2.30691 24.9155 2.71464 25.2172C3.12235 25.5188 3.64907 25.609 4.1339 25.4607C4.61896 25.3122 5.00478 24.9426 5.17374 24.4644H6.33806C6.47943 24.4644 6.6151 24.4082 6.71506 24.3083L8.03628 22.987L11.1364 24.6286V27.6632H9.4389C9.26991 27.185 8.8841 26.8154 8.39906 26.6669C7.91424 26.5186 7.38749 26.6088 6.97981 26.9104C6.5721 27.2122 6.33144 27.6891 6.33144 28.1963C6.33144 28.7035 6.57207 29.1804 6.97981 29.4822C7.38752 29.7838 7.91424 29.874 8.39906 29.7257C8.88412 29.5772 9.26994 29.2076 9.4389 28.7294H11.6695C11.8109 28.7294 11.9465 28.6732 12.0465 28.5733C12.1465 28.4733 12.2026 28.3376 12.2026 28.1962V25.193L16.4678 27.4498V29.8928C15.9896 30.0618 15.62 30.4476 15.4714 30.9324C15.3232 31.4174 15.4134 31.9441 15.7149 32.3519C16.0167 32.7596 16.4937 33 17.0009 33C17.508 33 17.985 32.7596 18.2868 32.3519C18.5884 31.9442 18.6786 31.4175 18.5303 30.9324C18.3818 30.4476 18.0121 30.0618 17.5339 29.8928V27.4498L21.7991 25.1921V28.1962C21.7991 28.3376 21.8552 28.4733 21.9552 28.5733C22.0552 28.6732 22.1908 28.7294 22.3322 28.7294H24.5628C24.7318 29.2076 25.1176 29.5772 25.6027 29.7257C26.0875 29.874 26.6142 29.7838 27.0219 29.4822C27.4296 29.1804 27.6703 28.7035 27.6703 28.1963C27.6703 27.6891 27.4296 27.2122 27.0219 26.9104C26.6142 26.6088 26.0875 26.5186 25.6027 26.6669C25.1176 26.8154 24.7318 27.185 24.5628 27.6632H22.8654V24.6286L25.9657 22.987L27.2869 24.3083H27.2867C27.3866 24.4082 27.5223 24.4644 27.6637 24.4644H28.828C28.997 24.9426 29.3828 25.3122 29.8678 25.4607C30.3527 25.609 30.8794 25.5188 31.2871 25.2172C31.6948 24.9155 31.9354 24.4385 31.9354 23.9313C31.9354 23.4241 31.6948 22.9472 31.2871 22.6454C30.8794 22.3438 30.3527 22.2536 29.8678 22.4019C29.3828 22.5504 28.997 22.92 28.828 23.3982H27.8843L26.5974 22.1113V17.5337H29.8943ZM31.3957 16.4674C31.6113 16.4674 31.8058 16.5973 31.8881 16.7965C31.9707 16.9958 31.9252 17.225 31.7727 17.3775C31.6201 17.5301 31.3909 17.5756 31.1917 17.493C30.9925 17.4106 30.8625 17.2162 30.8625 17.0005C30.8625 16.7061 31.1012 16.4674 31.3957 16.4674ZM30.3294 9.53655C30.545 9.53655 30.7395 9.6665 30.8218 9.86571C30.9044 10.0649 30.8589 10.2941 30.7064 10.4467C30.5538 10.5993 30.3246 10.6447 30.1254 10.5621C29.9262 10.4798 29.7962 10.2853 29.7962 10.0697C29.7962 9.77527 30.035 9.53655 30.3294 9.53655ZM26.0642 5.27141C26.2799 5.27141 26.4743 5.40137 26.5567 5.60058C26.6393 5.79979 26.5938 6.02899 26.4413 6.18156C26.2887 6.33413 26.0595 6.37959 25.8603 6.29699C25.6611 6.21464 25.5311 6.02019 25.5311 5.80456C25.5311 5.51014 25.7698 5.27141 26.0642 5.27141ZM7.93744 6.3377C7.7218 6.3377 7.52735 6.20774 7.445 6.00853C7.36241 5.80932 7.40787 5.58012 7.56043 5.42755C7.71299 5.27498 7.9422 5.22952 8.14141 5.31212C8.34063 5.39447 8.47058 5.58892 8.47058 5.80456C8.47058 5.94593 8.41441 6.0816 8.31444 6.18156C8.21448 6.28152 8.07881 6.3377 7.93744 6.3377ZM3.67231 10.6028C3.45667 10.6028 3.26221 10.4729 3.17987 10.2737C3.09727 10.0745 3.14274 9.84525 3.2953 9.69268C3.44786 9.54011 3.67706 9.49466 3.87628 9.57725C4.07549 9.6596 4.20545 9.85405 4.20545 10.0697C4.20545 10.2111 4.14928 10.3467 4.04931 10.4467C3.94935 10.5467 3.81368 10.6028 3.67231 10.6028ZM2.60602 17.5337C2.39038 17.5337 2.19593 17.4037 2.11358 17.2045C2.03099 17.0053 2.07645 16.7761 2.22902 16.6235C2.38158 16.4709 2.61078 16.4255 2.81 16.5081C3.00921 16.5904 3.13916 16.7849 3.13916 17.0005C3.13916 17.1419 3.08299 17.2776 2.98303 17.3775C2.88307 17.4775 2.7474 17.5337 2.60602 17.5337ZM3.67231 24.4645C3.45667 24.4645 3.26221 24.3346 3.17987 24.1353C3.09727 23.9361 3.14274 23.7069 3.2953 23.5544C3.44786 23.4018 3.67706 23.3563 3.87628 23.4389C4.07549 23.5213 4.20545 23.7157 4.20545 23.9314C4.20545 24.0727 4.14928 24.2084 4.04931 24.3084C3.94935 24.4083 3.81368 24.4645 3.67231 24.4645ZM7.93744 28.7296C7.7218 28.7296 7.52735 28.5997 7.445 28.4005C7.36241 28.2013 7.40787 27.9721 7.56043 27.8195C7.71299 27.6669 7.9422 27.6215 8.14141 27.7041C8.34063 27.7864 8.47058 27.9809 8.47058 28.1965C8.47058 28.3379 8.41441 28.4735 8.31444 28.5735C8.21448 28.6735 8.07881 28.7296 7.93744 28.7296ZM26.0642 27.6634C26.2799 27.6634 26.4743 27.7933 26.5567 27.9925C26.6393 28.1917 26.5938 28.4209 26.4413 28.5735C26.2887 28.7261 26.0595 28.7715 25.8603 28.6889C25.6611 28.6066 25.5311 28.4121 25.5311 28.1965C25.5311 27.9021 25.7698 27.6634 26.0642 27.6634ZM30.3294 23.3982C30.545 23.3982 30.7395 23.5282 30.8218 23.7274C30.9044 23.9266 30.8589 24.1558 30.7064 24.3084C30.5538 24.4609 30.3246 24.5064 30.1254 24.4238C29.9262 24.3414 29.7962 24.147 29.7962 23.9314C29.7962 23.6369 30.035 23.3982 30.3294 23.3982ZM17.0008 2.07256C17.2165 2.07256 17.4109 2.20252 17.4933 2.40173C17.5759 2.60094 17.5304 2.83014 17.3779 2.98271C17.2253 3.13528 16.9961 3.18074 16.7969 3.09815C16.5977 3.01579 16.4677 2.82134 16.4677 2.60571C16.4677 2.31129 16.7064 2.07256 17.0008 2.07256ZM17.0008 31.9285C16.7852 31.9285 16.5908 31.7985 16.5084 31.5993C16.4258 31.4001 16.4713 31.1709 16.6238 31.0183C16.7764 30.8658 17.0056 30.8203 17.2048 30.9029C17.404 30.9853 17.534 31.1797 17.534 31.3953C17.534 31.5367 17.4778 31.6724 17.3779 31.7724C17.2779 31.8723 17.1422 31.9285 17.0008 31.9285V31.9285ZM25.5311 22.0121L17.0008 26.5273L8.47058 22.0121V11.989L17.0008 7.47277L25.5311 11.989V22.0121Z"/>
</mask>
<path d="M29.8943 17.5337C30.0633 18.0118 30.4491 18.3815 30.9341 18.53C31.4189 18.6783 31.9457 18.5881 32.3534 18.2865C32.7611 17.9847 33.0017 17.5078 33.0017 17.0006C33.0017 16.4934 32.7611 16.0164 32.3534 15.7146C31.9457 15.4131 31.4189 15.3229 30.9341 15.4712C30.4491 15.6197 30.0632 15.9893 29.8943 16.4675H26.5974V11.8898L27.8843 10.6029H28.828C28.997 11.0811 29.3828 11.4507 29.8678 11.5993C30.3527 11.7476 30.8794 11.6573 31.2871 11.3558C31.6948 11.054 31.9354 10.577 31.9354 10.0699C31.9354 9.56267 31.6948 9.0857 31.2871 8.78391C30.8794 8.48236 30.3527 8.39215 29.8678 8.54043C29.3828 8.68895 28.997 9.05858 28.828 9.53676H27.6637C27.5223 9.53676 27.3866 9.59294 27.2867 9.6929L25.9654 11.0141L22.8654 9.37259V6.33795H24.5628C24.7318 6.81611 25.1176 7.18573 25.6027 7.33428C26.0875 7.48256 26.6142 7.39236 27.0219 7.0908C27.4296 6.789 27.6703 6.31204 27.6703 5.80486C27.6703 5.29767 27.4297 4.82071 27.0219 4.51892C26.6142 4.21737 26.0875 4.12716 25.6027 4.27544C25.1176 4.42396 24.7318 4.79358 24.5628 5.27177H22.3322C22.0378 5.27177 21.7991 5.5105 21.7991 5.80491V8.80812L17.534 6.55131V4.10745C18.0121 3.93847 18.3817 3.55265 18.5303 3.06761C18.6786 2.58279 18.5884 2.05605 18.2868 1.64836C17.985 1.24065 17.5081 1 17.0009 1C16.4937 1 16.0167 1.24063 15.7149 1.64836C15.4134 2.05607 15.3232 2.58279 15.4714 3.06761C15.62 3.55267 15.9896 3.93849 16.4678 4.10745V6.55131L12.2026 8.80909V5.80491C12.2026 5.66354 12.1465 5.52787 12.0465 5.42791C11.9466 5.32794 11.8109 5.27177 11.6695 5.27177H9.4389C9.26992 4.79361 8.8841 4.42399 8.39906 4.27544C7.91424 4.12716 7.3875 4.21736 6.97981 4.51892C6.5721 4.82072 6.33145 5.29767 6.33145 5.80486C6.33145 6.31204 6.57208 6.78901 6.97981 7.0908C7.38752 7.39235 7.91424 7.48256 8.39906 7.33428C8.88413 7.18576 9.26994 6.81613 9.4389 6.33795H11.1364V9.37259L8.03604 11.0141L6.71483 9.6929H6.71506C6.6151 9.59294 6.47943 9.53676 6.33806 9.53676H5.17374C5.00475 9.0586 4.61893 8.68898 4.1339 8.54043C3.64907 8.39215 3.12233 8.48236 2.71464 8.78391C2.30693 9.08571 2.06628 9.56267 2.06628 10.0699C2.06628 10.577 2.30691 11.054 2.71464 11.3558C3.12235 11.6573 3.64907 11.7476 4.1339 11.5993C4.61896 11.4508 5.00478 11.0811 5.17374 10.6029H6.11743L7.40434 11.8898V16.4675H4.10745C3.93847 15.9893 3.55265 15.6197 3.06761 15.4712C2.58279 15.3229 2.05605 15.4131 1.64836 15.7146C1.24065 16.0164 1 16.4934 1 17.0006C1 17.5078 1.24063 17.9847 1.64836 18.2865C2.05607 18.5881 2.58279 18.6783 3.06761 18.53C3.55268 18.3815 3.93849 18.0119 4.10745 17.5337H7.40434V22.1113L6.11743 23.3982H5.17374C5.00475 22.9201 4.61893 22.5504 4.1339 22.4019C3.64907 22.2536 3.12233 22.3438 2.71464 22.6454C2.30693 22.9472 2.06628 23.4241 2.06628 23.9313C2.06628 24.4385 2.30691 24.9155 2.71464 25.2172C3.12235 25.5188 3.64907 25.609 4.1339 25.4607C4.61896 25.3122 5.00478 24.9426 5.17374 24.4644H6.33806C6.47943 24.4644 6.6151 24.4082 6.71506 24.3083L8.03628 22.987L11.1364 24.6286V27.6632H9.4389C9.26991 27.185 8.8841 26.8154 8.39906 26.6669C7.91424 26.5186 7.38749 26.6088 6.97981 26.9104C6.5721 27.2122 6.33144 27.6891 6.33144 28.1963C6.33144 28.7035 6.57207 29.1804 6.97981 29.4822C7.38752 29.7838 7.91424 29.874 8.39906 29.7257C8.88412 29.5772 9.26994 29.2076 9.4389 28.7294H11.6695C11.8109 28.7294 11.9465 28.6732 12.0465 28.5733C12.1465 28.4733 12.2026 28.3376 12.2026 28.1962V25.193L16.4678 27.4498V29.8928C15.9896 30.0618 15.62 30.4476 15.4714 30.9324C15.3232 31.4174 15.4134 31.9441 15.7149 32.3519C16.0167 32.7596 16.4937 33 17.0009 33C17.508 33 17.985 32.7596 18.2868 32.3519C18.5884 31.9442 18.6786 31.4175 18.5303 30.9324C18.3818 30.4476 18.0121 30.0618 17.5339 29.8928V27.4498L21.7991 25.1921V28.1962C21.7991 28.3376 21.8552 28.4733 21.9552 28.5733C22.0552 28.6732 22.1908 28.7294 22.3322 28.7294H24.5628C24.7318 29.2076 25.1176 29.5772 25.6027 29.7257C26.0875 29.874 26.6142 29.7838 27.0219 29.4822C27.4296 29.1804 27.6703 28.7035 27.6703 28.1963C27.6703 27.6891 27.4296 27.2122 27.0219 26.9104C26.6142 26.6088 26.0875 26.5186 25.6027 26.6669C25.1176 26.8154 24.7318 27.185 24.5628 27.6632H22.8654V24.6286L25.9657 22.987L27.2869 24.3083H27.2867C27.3866 24.4082 27.5223 24.4644 27.6637 24.4644H28.828C28.997 24.9426 29.3828 25.3122 29.8678 25.4607C30.3527 25.609 30.8794 25.5188 31.2871 25.2172C31.6948 24.9155 31.9354 24.4385 31.9354 23.9313C31.9354 23.4241 31.6948 22.9472 31.2871 22.6454C30.8794 22.3438 30.3527 22.2536 29.8678 22.4019C29.3828 22.5504 28.997 22.92 28.828 23.3982H27.8843L26.5974 22.1113V17.5337H29.8943ZM31.3957 16.4674C31.6113 16.4674 31.8058 16.5973 31.8881 16.7965C31.9707 16.9958 31.9252 17.225 31.7727 17.3775C31.6201 17.5301 31.3909 17.5756 31.1917 17.493C30.9925 17.4106 30.8625 17.2162 30.8625 17.0005C30.8625 16.7061 31.1012 16.4674 31.3957 16.4674ZM30.3294 9.53655C30.545 9.53655 30.7395 9.6665 30.8218 9.86571C30.9044 10.0649 30.8589 10.2941 30.7064 10.4467C30.5538 10.5993 30.3246 10.6447 30.1254 10.5621C29.9262 10.4798 29.7962 10.2853 29.7962 10.0697C29.7962 9.77527 30.035 9.53655 30.3294 9.53655ZM26.0642 5.27141C26.2799 5.27141 26.4743 5.40137 26.5567 5.60058C26.6393 5.79979 26.5938 6.02899 26.4413 6.18156C26.2887 6.33413 26.0595 6.37959 25.8603 6.29699C25.6611 6.21464 25.5311 6.02019 25.5311 5.80456C25.5311 5.51014 25.7698 5.27141 26.0642 5.27141ZM7.93744 6.3377C7.7218 6.3377 7.52735 6.20774 7.445 6.00853C7.36241 5.80932 7.40787 5.58012 7.56043 5.42755C7.71299 5.27498 7.9422 5.22952 8.14141 5.31212C8.34063 5.39447 8.47058 5.58892 8.47058 5.80456C8.47058 5.94593 8.41441 6.0816 8.31444 6.18156C8.21448 6.28152 8.07881 6.3377 7.93744 6.3377ZM3.67231 10.6028C3.45667 10.6028 3.26221 10.4729 3.17987 10.2737C3.09727 10.0745 3.14274 9.84525 3.2953 9.69268C3.44786 9.54011 3.67706 9.49466 3.87628 9.57725C4.07549 9.6596 4.20545 9.85405 4.20545 10.0697C4.20545 10.2111 4.14928 10.3467 4.04931 10.4467C3.94935 10.5467 3.81368 10.6028 3.67231 10.6028ZM2.60602 17.5337C2.39038 17.5337 2.19593 17.4037 2.11358 17.2045C2.03099 17.0053 2.07645 16.7761 2.22902 16.6235C2.38158 16.4709 2.61078 16.4255 2.81 16.5081C3.00921 16.5904 3.13916 16.7849 3.13916 17.0005C3.13916 17.1419 3.08299 17.2776 2.98303 17.3775C2.88307 17.4775 2.7474 17.5337 2.60602 17.5337ZM3.67231 24.4645C3.45667 24.4645 3.26221 24.3346 3.17987 24.1353C3.09727 23.9361 3.14274 23.7069 3.2953 23.5544C3.44786 23.4018 3.67706 23.3563 3.87628 23.4389C4.07549 23.5213 4.20545 23.7157 4.20545 23.9314C4.20545 24.0727 4.14928 24.2084 4.04931 24.3084C3.94935 24.4083 3.81368 24.4645 3.67231 24.4645ZM7.93744 28.7296C7.7218 28.7296 7.52735 28.5997 7.445 28.4005C7.36241 28.2013 7.40787 27.9721 7.56043 27.8195C7.71299 27.6669 7.9422 27.6215 8.14141 27.7041C8.34063 27.7864 8.47058 27.9809 8.47058 28.1965C8.47058 28.3379 8.41441 28.4735 8.31444 28.5735C8.21448 28.6735 8.07881 28.7296 7.93744 28.7296ZM26.0642 27.6634C26.2799 27.6634 26.4743 27.7933 26.5567 27.9925C26.6393 28.1917 26.5938 28.4209 26.4413 28.5735C26.2887 28.7261 26.0595 28.7715 25.8603 28.6889C25.6611 28.6066 25.5311 28.4121 25.5311 28.1965C25.5311 27.9021 25.7698 27.6634 26.0642 27.6634ZM30.3294 23.3982C30.545 23.3982 30.7395 23.5282 30.8218 23.7274C30.9044 23.9266 30.8589 24.1558 30.7064 24.3084C30.5538 24.4609 30.3246 24.5064 30.1254 24.4238C29.9262 24.3414 29.7962 24.147 29.7962 23.9314C29.7962 23.6369 30.035 23.3982 30.3294 23.3982ZM17.0008 2.07256C17.2165 2.07256 17.4109 2.20252 17.4933 2.40173C17.5759 2.60094 17.5304 2.83014 17.3779 2.98271C17.2253 3.13528 16.9961 3.18074 16.7969 3.09815C16.5977 3.01579 16.4677 2.82134 16.4677 2.60571C16.4677 2.31129 16.7064 2.07256 17.0008 2.07256ZM17.0008 31.9285C16.7852 31.9285 16.5908 31.7985 16.5084 31.5993C16.4258 31.4001 16.4713 31.1709 16.6238 31.0183C16.7764 30.8658 17.0056 30.8203 17.2048 30.9029C17.404 30.9853 17.534 31.1797 17.534 31.3953C17.534 31.5367 17.4778 31.6724 17.3779 31.7724C17.2779 31.8723 17.1422 31.9285 17.0008 31.9285V31.9285ZM25.5311 22.0121L17.0008 26.5273L8.47058 22.0121V11.989L17.0008 7.47277L25.5311 11.989V22.0121Z" fill="#E5C2B9"/>
<path d="M29.8943 17.5337C30.0633 18.0118 30.4491 18.3815 30.9341 18.53C31.4189 18.6783 31.9457 18.5881 32.3534 18.2865C32.7611 17.9847 33.0017 17.5078 33.0017 17.0006C33.0017 16.4934 32.7611 16.0164 32.3534 15.7146C31.9457 15.4131 31.4189 15.3229 30.9341 15.4712C30.4491 15.6197 30.0632 15.9893 29.8943 16.4675H26.5974V11.8898L27.8843 10.6029H28.828C28.997 11.0811 29.3828 11.4507 29.8678 11.5993C30.3527 11.7476 30.8794 11.6573 31.2871 11.3558C31.6948 11.054 31.9354 10.577 31.9354 10.0699C31.9354 9.56267 31.6948 9.0857 31.2871 8.78391C30.8794 8.48236 30.3527 8.39215 29.8678 8.54043C29.3828 8.68895 28.997 9.05858 28.828 9.53676H27.6637C27.5223 9.53676 27.3866 9.59294 27.2867 9.6929L25.9654 11.0141L22.8654 9.37259V6.33795H24.5628C24.7318 6.81611 25.1176 7.18573 25.6027 7.33428C26.0875 7.48256 26.6142 7.39236 27.0219 7.0908C27.4296 6.789 27.6703 6.31204 27.6703 5.80486C27.6703 5.29767 27.4297 4.82071 27.0219 4.51892C26.6142 4.21737 26.0875 4.12716 25.6027 4.27544C25.1176 4.42396 24.7318 4.79358 24.5628 5.27177H22.3322C22.0378 5.27177 21.7991 5.5105 21.7991 5.80491V8.80812L17.534 6.55131V4.10745C18.0121 3.93847 18.3817 3.55265 18.5303 3.06761C18.6786 2.58279 18.5884 2.05605 18.2868 1.64836C17.985 1.24065 17.5081 1 17.0009 1C16.4937 1 16.0167 1.24063 15.7149 1.64836C15.4134 2.05607 15.3232 2.58279 15.4714 3.06761C15.62 3.55267 15.9896 3.93849 16.4678 4.10745V6.55131L12.2026 8.80909V5.80491C12.2026 5.66354 12.1465 5.52787 12.0465 5.42791C11.9466 5.32794 11.8109 5.27177 11.6695 5.27177H9.4389C9.26992 4.79361 8.8841 4.42399 8.39906 4.27544C7.91424 4.12716 7.3875 4.21736 6.97981 4.51892C6.5721 4.82072 6.33145 5.29767 6.33145 5.80486C6.33145 6.31204 6.57208 6.78901 6.97981 7.0908C7.38752 7.39235 7.91424 7.48256 8.39906 7.33428C8.88413 7.18576 9.26994 6.81613 9.4389 6.33795H11.1364V9.37259L8.03604 11.0141L6.71483 9.6929H6.71506C6.6151 9.59294 6.47943 9.53676 6.33806 9.53676H5.17374C5.00475 9.0586 4.61893 8.68898 4.1339 8.54043C3.64907 8.39215 3.12233 8.48236 2.71464 8.78391C2.30693 9.08571 2.06628 9.56267 2.06628 10.0699C2.06628 10.577 2.30691 11.054 2.71464 11.3558C3.12235 11.6573 3.64907 11.7476 4.1339 11.5993C4.61896 11.4508 5.00478 11.0811 5.17374 10.6029H6.11743L7.40434 11.8898V16.4675H4.10745C3.93847 15.9893 3.55265 15.6197 3.06761 15.4712C2.58279 15.3229 2.05605 15.4131 1.64836 15.7146C1.24065 16.0164 1 16.4934 1 17.0006C1 17.5078 1.24063 17.9847 1.64836 18.2865C2.05607 18.5881 2.58279 18.6783 3.06761 18.53C3.55268 18.3815 3.93849 18.0119 4.10745 17.5337H7.40434V22.1113L6.11743 23.3982H5.17374C5.00475 22.9201 4.61893 22.5504 4.1339 22.4019C3.64907 22.2536 3.12233 22.3438 2.71464 22.6454C2.30693 22.9472 2.06628 23.4241 2.06628 23.9313C2.06628 24.4385 2.30691 24.9155 2.71464 25.2172C3.12235 25.5188 3.64907 25.609 4.1339 25.4607C4.61896 25.3122 5.00478 24.9426 5.17374 24.4644H6.33806C6.47943 24.4644 6.6151 24.4082 6.71506 24.3083L8.03628 22.987L11.1364 24.6286V27.6632H9.4389C9.26991 27.185 8.8841 26.8154 8.39906 26.6669C7.91424 26.5186 7.38749 26.6088 6.97981 26.9104C6.5721 27.2122 6.33144 27.6891 6.33144 28.1963C6.33144 28.7035 6.57207 29.1804 6.97981 29.4822C7.38752 29.7838 7.91424 29.874 8.39906 29.7257C8.88412 29.5772 9.26994 29.2076 9.4389 28.7294H11.6695C11.8109 28.7294 11.9465 28.6732 12.0465 28.5733C12.1465 28.4733 12.2026 28.3376 12.2026 28.1962V25.193L16.4678 27.4498V29.8928C15.9896 30.0618 15.62 30.4476 15.4714 30.9324C15.3232 31.4174 15.4134 31.9441 15.7149 32.3519C16.0167 32.7596 16.4937 33 17.0009 33C17.508 33 17.985 32.7596 18.2868 32.3519C18.5884 31.9442 18.6786 31.4175 18.5303 30.9324C18.3818 30.4476 18.0121 30.0618 17.5339 29.8928V27.4498L21.7991 25.1921V28.1962C21.7991 28.3376 21.8552 28.4733 21.9552 28.5733C22.0552 28.6732 22.1908 28.7294 22.3322 28.7294H24.5628C24.7318 29.2076 25.1176 29.5772 25.6027 29.7257C26.0875 29.874 26.6142 29.7838 27.0219 29.4822C27.4296 29.1804 27.6703 28.7035 27.6703 28.1963C27.6703 27.6891 27.4296 27.2122 27.0219 26.9104C26.6142 26.6088 26.0875 26.5186 25.6027 26.6669C25.1176 26.8154 24.7318 27.185 24.5628 27.6632H22.8654V24.6286L25.9657 22.987L27.2869 24.3083H27.2867C27.3866 24.4082 27.5223 24.4644 27.6637 24.4644H28.828C28.997 24.9426 29.3828 25.3122 29.8678 25.4607C30.3527 25.609 30.8794 25.5188 31.2871 25.2172C31.6948 24.9155 31.9354 24.4385 31.9354 23.9313C31.9354 23.4241 31.6948 22.9472 31.2871 22.6454C30.8794 22.3438 30.3527 22.2536 29.8678 22.4019C29.3828 22.5504 28.997 22.92 28.828 23.3982H27.8843L26.5974 22.1113V17.5337H29.8943ZM31.3957 16.4674C31.6113 16.4674 31.8058 16.5973 31.8881 16.7965C31.9707 16.9958 31.9252 17.225 31.7727 17.3775C31.6201 17.5301 31.3909 17.5756 31.1917 17.493C30.9925 17.4106 30.8625 17.2162 30.8625 17.0005C30.8625 16.7061 31.1012 16.4674 31.3957 16.4674ZM30.3294 9.53655C30.545 9.53655 30.7395 9.6665 30.8218 9.86571C30.9044 10.0649 30.8589 10.2941 30.7064 10.4467C30.5538 10.5993 30.3246 10.6447 30.1254 10.5621C29.9262 10.4798 29.7962 10.2853 29.7962 10.0697C29.7962 9.77527 30.035 9.53655 30.3294 9.53655ZM26.0642 5.27141C26.2799 5.27141 26.4743 5.40137 26.5567 5.60058C26.6393 5.79979 26.5938 6.02899 26.4413 6.18156C26.2887 6.33413 26.0595 6.37959 25.8603 6.29699C25.6611 6.21464 25.5311 6.02019 25.5311 5.80456C25.5311 5.51014 25.7698 5.27141 26.0642 5.27141ZM7.93744 6.3377C7.7218 6.3377 7.52735 6.20774 7.445 6.00853C7.36241 5.80932 7.40787 5.58012 7.56043 5.42755C7.71299 5.27498 7.9422 5.22952 8.14141 5.31212C8.34063 5.39447 8.47058 5.58892 8.47058 5.80456C8.47058 5.94593 8.41441 6.0816 8.31444 6.18156C8.21448 6.28152 8.07881 6.3377 7.93744 6.3377ZM3.67231 10.6028C3.45667 10.6028 3.26221 10.4729 3.17987 10.2737C3.09727 10.0745 3.14274 9.84525 3.2953 9.69268C3.44786 9.54011 3.67706 9.49466 3.87628 9.57725C4.07549 9.6596 4.20545 9.85405 4.20545 10.0697C4.20545 10.2111 4.14928 10.3467 4.04931 10.4467C3.94935 10.5467 3.81368 10.6028 3.67231 10.6028ZM2.60602 17.5337C2.39038 17.5337 2.19593 17.4037 2.11358 17.2045C2.03099 17.0053 2.07645 16.7761 2.22902 16.6235C2.38158 16.4709 2.61078 16.4255 2.81 16.5081C3.00921 16.5904 3.13916 16.7849 3.13916 17.0005C3.13916 17.1419 3.08299 17.2776 2.98303 17.3775C2.88307 17.4775 2.7474 17.5337 2.60602 17.5337ZM3.67231 24.4645C3.45667 24.4645 3.26221 24.3346 3.17987 24.1353C3.09727 23.9361 3.14274 23.7069 3.2953 23.5544C3.44786 23.4018 3.67706 23.3563 3.87628 23.4389C4.07549 23.5213 4.20545 23.7157 4.20545 23.9314C4.20545 24.0727 4.14928 24.2084 4.04931 24.3084C3.94935 24.4083 3.81368 24.4645 3.67231 24.4645ZM7.93744 28.7296C7.7218 28.7296 7.52735 28.5997 7.445 28.4005C7.36241 28.2013 7.40787 27.9721 7.56043 27.8195C7.71299 27.6669 7.9422 27.6215 8.14141 27.7041C8.34063 27.7864 8.47058 27.9809 8.47058 28.1965C8.47058 28.3379 8.41441 28.4735 8.31444 28.5735C8.21448 28.6735 8.07881 28.7296 7.93744 28.7296ZM26.0642 27.6634C26.2799 27.6634 26.4743 27.7933 26.5567 27.9925C26.6393 28.1917 26.5938 28.4209 26.4413 28.5735C26.2887 28.7261 26.0595 28.7715 25.8603 28.6889C25.6611 28.6066 25.5311 28.4121 25.5311 28.1965C25.5311 27.9021 25.7698 27.6634 26.0642 27.6634ZM30.3294 23.3982C30.545 23.3982 30.7395 23.5282 30.8218 23.7274C30.9044 23.9266 30.8589 24.1558 30.7064 24.3084C30.5538 24.4609 30.3246 24.5064 30.1254 24.4238C29.9262 24.3414 29.7962 24.147 29.7962 23.9314C29.7962 23.6369 30.035 23.3982 30.3294 23.3982ZM17.0008 2.07256C17.2165 2.07256 17.4109 2.20252 17.4933 2.40173C17.5759 2.60094 17.5304 2.83014 17.3779 2.98271C17.2253 3.13528 16.9961 3.18074 16.7969 3.09815C16.5977 3.01579 16.4677 2.82134 16.4677 2.60571C16.4677 2.31129 16.7064 2.07256 17.0008 2.07256ZM17.0008 31.9285C16.7852 31.9285 16.5908 31.7985 16.5084 31.5993C16.4258 31.4001 16.4713 31.1709 16.6238 31.0183C16.7764 30.8658 17.0056 30.8203 17.2048 30.9029C17.404 30.9853 17.534 31.1797 17.534 31.3953C17.534 31.5367 17.4778 31.6724 17.3779 31.7724C17.2779 31.8723 17.1422 31.9285 17.0008 31.9285V31.9285ZM25.5311 22.0121L17.0008 26.5273L8.47058 22.0121V11.989L17.0008 7.47277L25.5311 11.989V22.0121Z" stroke="#E5C2B9" stroke-width="0.5" mask="url(#path-1-outside-1_584_1916)"/>
<path d="M9.239 12.1464L16.703 8.4144C16.8881 8.32183 17.1061 8.32183 17.2913 8.4144L24.7553 12.1464C24.9785 12.258 25.1192 12.486 25.1192 12.7354L25.1192 21.2649C25.1192 21.265 25.1192 21.2652 25.1192 21.2653V21.2657H24.9942C24.9954 21.4687 24.881 21.6548 24.6994 21.7455L9.239 12.1464ZM9.239 12.1464C9.01572 12.258 8.87501 12.486 8.87501 12.7354V21.2653M9.239 12.1464L24.7552 21.8573L17.2913 25.5893C17.1061 25.6819 16.8881 25.6819 16.703 25.5893L9.23906 21.8573C9.01501 21.7454 8.87369 21.5159 8.87501 21.2653M8.87501 21.2653C8.87501 21.2652 8.87501 21.2651 8.87501 21.2649L8.99993 21.2657H8.87501V21.2653ZM16.9971 9.73912L23.803 13.142V20.8591L16.9971 24.2621L10.1913 20.8591V13.142L16.9971 9.73912Z" fill="#E5C2B9" stroke="#E5C2B9" stroke-width="0.25"/>
<path d="M11.5171 14.2211L11.5172 14.2211C11.817 14.1507 12.1255 14.2976 12.2599 14.5744L13.1424 16.3438V14.3347V14.2097H13.2674H14.3336H14.4586V14.3347L14.4586 19.1329L14.4586 19.133M11.5171 14.2211L13.9228 19.6523C14.1637 19.5957 14.3339 19.3805 14.3336 19.133H14.4586M11.5171 14.2211C11.2175 14.2919 11.0066 14.5605 11.0098 14.8685M11.5171 14.2211L11.0098 14.8685M14.4586 19.133C14.4589 19.4384 14.2489 19.704 13.9516 19.774L14.4586 19.133ZM11.0098 14.8685V14.8679H11.1348L11.0098 14.8693C11.0098 14.869 11.0098 14.8688 11.0098 14.8685ZM12.1478 14.6296C12.039 14.4049 11.7889 14.2857 11.5458 14.3428L13.1424 16.6239L12.1478 14.6296Z" fill="#E5C2B9" stroke="#E5C2B9" stroke-width="0.25"/>
<path d="M15.2773 19.6661V19.7911H15.4023H16.4686H16.5936V19.6661V17.6586H18.0681H18.1931V17.5336V16.4673V16.3423H18.0681H16.5936V15.526H18.6012H18.7262V15.401V14.3347V14.2097H18.6012H15.9355C15.572 14.2097 15.2773 14.5044 15.2773 14.8679V19.6661Z" fill="#E5C2B9" stroke="#E5C2B9" stroke-width="0.25"/>
<path d="M20.6112 19.6661V19.7911H20.7362H21.8025H21.9275V19.6661V15.526H22.8688H22.9938V15.401V14.3347V14.2097H22.8688H19.6699H19.5449V14.3347V15.401V15.526H19.6699H20.6112V19.6661Z" fill="#E5C2B9" stroke="#E5C2B9" stroke-width="0.25"/>
</svg>
