<svg width="38" height="38" viewBox="0 0 38 38" fill="non" xmlns="http://www.w3.org/2000/svg">
<path d="M19.3164 23.4623L19.5766 26.6795C20.6405 26.1786 22.9645 24.7024 24.8317 20.8496C23.8256 21.4146 22.7897 21.9077 21.8632 22.3482C21.0246 22.7513 20.1731 23.1202 19.3164 23.4624L19.3164 23.4623Z" />
<path d="M29.9838 12.8772C30.4807 10.8478 30.525 8.81397 30.4462 7.31316C28.9366 7.22479 26.8856 7.26036 24.8359 7.76272L29.9838 12.8772Z" />
<path d="M23.2482 13.0879C22.8911 13.0879 22.534 13.2231 22.2623 13.4931C21.9997 13.7539 21.8555 14.1003 21.8555 14.4686C21.8555 14.8369 21.9999 15.1833 22.2621 15.4438C22.806 15.9842 23.6901 15.9842 24.2337 15.4438C24.4961 15.183 24.6406 14.8366 24.6406 14.4683C24.6406 14.1 24.4959 13.7536 24.2337 13.4928C23.9623 13.2228 23.6052 13.0879 23.2482 13.0879H23.2482Z" />
<path d="M16.8409 12.9512C12.9862 14.8011 11.5057 17.0979 11 18.1543L14.2125 18.4104C14.5592 17.5518 14.9332 16.6986 15.3436 15.8584C15.7836 14.9527 16.2778 13.9406 16.8409 12.9512L16.8409 12.9512Z" />
<path d="M19 0C8.52321 0 0 8.52321 0 19C0 29.4768 8.52321 38 19 38C29.4768 38 38 29.4768 38 19C38 8.52321 29.4768 0 19 0ZM6.71672 27.0028L10.3088 22.9601C10.477 22.7704 10.7679 22.7527 10.9575 22.9217C11.1471 23.0903 11.1646 23.3809 10.9958 23.5705L7.40377 27.6132C7.31293 27.7155 7.18679 27.7675 7.05983 27.7675C6.95148 27.7675 6.8423 27.7292 6.75502 27.6515C6.5654 27.483 6.54789 27.1924 6.71671 27.0028L6.71672 27.0028ZM7.3039 31.4C7.18898 31.4 7.07379 31.3571 6.98459 31.2709C6.80181 31.0944 6.79716 30.8036 6.97337 30.6208L12.5152 24.8833C12.6917 24.7011 12.9825 24.6959 13.1653 24.8721C13.3481 25.0486 13.3527 25.3394 13.1765 25.5222L7.6347 31.26C7.54413 31.353 7.42429 31.4001 7.30389 31.4001L7.3039 31.4ZM15.1393 27.4452L11.5478 31.4876C11.4569 31.5899 11.3308 31.6419 11.2038 31.6419C11.0955 31.6419 10.9863 31.6036 10.899 31.5262C10.7094 31.3576 10.6919 31.0668 10.8607 30.8772L14.4522 26.8345C14.6205 26.6448 14.9113 26.6273 15.1009 26.7962C15.2908 26.965 15.3081 27.2553 15.1392 27.4452L15.1393 27.4452ZM27.7665 18.7742C27.2997 19.2169 26.7683 19.6254 26.2041 20.0054C26.2019 20.0115 26.2022 20.018 26.1997 20.024C23.649 26.2757 19.7355 27.6416 19.298 27.7767C19.2537 27.7904 19.208 27.7973 19.1626 27.7973C19.0714 27.7973 18.9817 27.7702 18.9048 27.7182C18.7893 27.6399 18.7157 27.5138 18.7045 27.3745L18.4161 23.8055C17.6369 24.0947 16.854 24.365 16.0699 24.5998C16.0264 24.6127 15.9823 24.6192 15.938 24.6192C15.8181 24.6192 15.7013 24.5724 15.6137 24.4857L13.1835 22.0713C13.0628 21.9514 13.0182 21.7747 13.0678 21.6119C13.3017 20.8408 13.5707 20.0717 13.8579 19.3055L10.2938 19.0215C10.1542 19.0106 10.0278 18.9367 9.9493 18.8207C9.87105 18.705 9.84998 18.5597 9.89157 18.4264C10.0273 17.9914 11.4006 14.1038 17.6905 11.569C18.0736 11.0043 18.4824 10.4667 18.9284 9.99244C18.9289 9.99189 18.9292 9.99135 18.93 9.9908C22.3828 6.35471 27.9211 6.1957 30.9142 6.42419C31.1416 6.4417 31.3219 6.62311 31.3377 6.85049C31.462 8.62818 31.4469 11.3006 30.6605 13.8908C30.654 13.9133 30.6493 13.9349 30.6397 13.9565C30.1002 15.7033 29.2076 17.4095 27.766 18.7743L27.7665 18.7742Z" />
<path d="M23.821 8.05273C22.2821 8.55783 20.7953 9.36064 19.5966 10.6228C18.1543 12.1575 17.0486 14.433 16.1602 16.2612C15.3067 18.0105 14.5896 19.81 14.0273 21.6148L16.0655 23.6402C17.8837 23.0812 19.6967 22.3684 21.4585 21.5197C23.4113 20.5921 25.6219 19.5414 27.1325 18.1074C28.3895 16.9174 29.1893 15.4295 29.6936 13.8871L23.821 8.05273ZM24.878 16.0954C24.4276 16.5428 23.836 16.7666 23.2442 16.7666C22.6521 16.7666 22.0608 16.5428 21.6102 16.0954C21.1729 15.6612 20.9319 15.0831 20.9319 14.468C20.9319 13.8529 21.1727 13.275 21.6105 12.8405C22.5109 11.9453 23.977 11.946 24.8778 12.8405C25.315 13.275 25.5561 13.8529 25.5561 14.468C25.5563 15.0828 25.315 15.6609 24.878 16.0954H24.878Z" />
</svg>
