<svg width="20" height="20" viewBox="0 0 448 448" fill="none" xmlns="http://www.w3.org/2000/svg">
<path d="M429.797 21.6317C429.627 20.811 429.226 20.056 428.641 19.4554C428.057 18.8549 427.313 18.4338 426.497 18.2417C372.117 4.94168 246.497 52.3317 178.367 120.412C166.225 132.454 155.153 145.53 145.277 159.492C124.277 157.592 103.277 159.192 85.3971 166.992C34.9071 189.192 20.2171 247.172 16.1171 272.062C15.8949 273.426 15.9898 274.822 16.3944 276.143C16.7989 277.465 17.5023 278.675 18.4499 279.681C19.3975 280.686 20.564 281.46 21.859 281.943C23.1539 282.425 24.5424 282.603 25.9171 282.462L106.987 273.562C107.043 279.676 107.41 285.784 108.087 291.862C108.51 296.062 110.384 299.984 113.387 302.952L144.777 334.342C147.747 337.346 151.673 339.221 155.877 339.642C161.918 340.315 167.989 340.683 174.067 340.742L165.177 421.742C165.038 423.115 165.217 424.501 165.699 425.794C166.182 427.086 166.955 428.251 167.959 429.197C168.964 430.143 170.172 430.846 171.491 431.251C172.81 431.656 174.205 431.752 175.567 431.532C200.467 427.532 258.567 412.842 280.637 362.362C288.437 344.462 290.037 323.572 288.237 302.672C302.24 292.805 315.353 281.733 327.427 269.582C395.807 201.582 442.897 78.7217 429.797 21.6317ZM266.647 181.492C260.674 175.52 256.607 167.912 254.958 159.629C253.31 151.345 254.155 142.759 257.386 134.956C260.618 127.153 266.091 120.484 273.113 115.792C280.135 111.099 288.391 108.595 296.837 108.595C305.283 108.595 313.539 111.099 320.561 115.792C327.583 120.484 333.056 127.153 336.288 134.956C339.519 142.759 340.364 151.345 338.716 159.629C337.067 167.912 333 175.52 327.027 181.492C323.065 185.462 318.36 188.611 313.179 190.76C307.999 192.909 302.446 194.016 296.837 194.016C291.229 194.016 285.675 192.909 280.495 190.76C275.314 188.611 270.609 185.462 266.647 181.492V181.492Z" stroke="" stroke-width="24" stroke-linecap="round" stroke-linejoin="round"/>
<path d="M77.6271 319.822C67.6582 321.046 58.3839 325.565 51.2771 332.662C33.6571 350.342 31.9871 415.822 31.9871 415.822C31.9871 415.822 97.5071 414.152 115.137 396.512C122.263 389.416 126.79 380.126 127.987 370.142" stroke="" stroke-width="24" stroke-linecap="round" stroke-linejoin="round"/>
</svg>
