<svg width="22" height="22" viewBox="0 0 22 22" fill="none" xmlns="http://www.w3.org/2000/svg">
<path d="M9.16797 9.625C9.16797 9.37187 9.37317 9.16667 9.6263 9.16667H10.543C10.7961 9.16667 11.0013 9.37187 11.0013 9.625C11.0013 9.87813 10.7961 10.0833 10.543 10.0833H9.6263C9.37317 10.0833 9.16797 9.87813 9.16797 9.625Z" fill="#FFD33F"/>
<path d="M9.6263 11C9.37317 11 9.16797 11.2052 9.16797 11.4583C9.16797 11.7115 9.37317 11.9167 9.6263 11.9167H10.543C10.7961 11.9167 11.0013 11.7115 11.0013 11.4583C11.0013 11.2052 10.7961 11 10.543 11H9.6263Z" fill="#FFD33F"/>
<path fill-rule="evenodd" clip-rule="evenodd" d="M8.75294 6.76004C8.442 6.43153 8.2513 5.98803 8.2513 5.5H9.16797C9.16797 6.00626 9.57837 6.41667 10.0846 6.41667C10.5909 6.41667 11.0013 6.00626 11.0013 5.5H11.918C11.918 5.98803 11.7273 6.43153 11.4163 6.76004C11.9996 7.0835 12.453 7.61287 12.6782 8.25H13.293C13.5461 8.25 13.7513 8.4552 13.7513 8.70833C13.7513 8.96146 13.5461 9.16667 13.293 9.16667H12.8346V10.0833H13.293C13.5461 10.0833 13.7513 10.2885 13.7513 10.5417C13.7513 10.7948 13.5461 11 13.293 11H12.8346V11.9167H13.293C13.5461 11.9167 13.7513 12.1219 13.7513 12.375C13.7513 12.6281 13.5461 12.8333 13.293 12.8333H12.6782C12.3006 13.9014 11.282 14.6667 10.0846 14.6667C8.88727 14.6667 7.86863 13.9014 7.49112 12.8333H6.8763C6.62317 12.8333 6.41797 12.6281 6.41797 12.375C6.41797 12.1219 6.62317 11.9167 6.8763 11.9167H7.33464V11H6.8763C6.62317 11 6.41797 10.7948 6.41797 10.5417C6.41797 10.2885 6.62317 10.0833 6.8763 10.0833H7.33464V9.16667H6.8763C6.62317 9.16667 6.41797 8.96146 6.41797 8.70833C6.41797 8.4552 6.62317 8.25 6.8763 8.25H7.49112C7.71631 7.61287 8.16963 7.0835 8.75294 6.76004ZM8.2513 11.9167V9.16667C8.2513 8.15414 9.07211 7.33333 10.0846 7.33333C11.0972 7.33333 11.918 8.15414 11.918 9.16667V11.9167C11.918 12.9292 11.0972 13.75 10.0846 13.75C9.07211 13.75 8.2513 12.9292 8.2513 11.9167Z" fill="#FFD33F"/>
<path d="M10.3138 19.7077C5.13464 19.7077 0.917969 15.491 0.917969 10.3118C0.917969 5.13268 5.13464 0.916016 10.3138 0.916016C15.493 0.916016 19.7096 5.13268 19.7096 10.3118C19.7096 15.491 15.493 19.7077 10.3138 19.7077ZM10.3138 2.29102C5.8863 2.29102 2.29297 5.89352 2.29297 10.3118C2.29297 14.7302 5.8863 18.3327 10.3138 18.3327C14.7413 18.3327 18.3346 14.7302 18.3346 10.3118C18.3346 5.89352 14.7413 2.29102 10.3138 2.29102Z" fill="#FFD33F"/>
<path d="M20.167 20.8545C19.9928 20.8545 19.8186 20.7903 19.6811 20.6528L17.8478 18.8195C17.582 18.5536 17.582 18.1136 17.8478 17.8478C18.1136 17.582 18.5536 17.582 18.8195 17.8478L20.6528 19.6811C20.9186 19.947 20.9186 20.387 20.6528 20.6528C20.5153 20.7903 20.3411 20.8545 20.167 20.8545Z" fill="#FFD33F"/>
</svg>
