<svg width="17" height="17" viewBox="0 0 17 17" fill="none" xmlns="http://www.w3.org/2000/svg">
<path d="M6.5614 0C10.1852 0 13.1228 2.93764 13.1228 6.5614C13.1228 8.05063 12.6267 9.42397 11.7907 10.5252L16.7379 15.4726C17.0874 15.822 17.0874 16.3885 16.7379 16.7379C16.4203 17.0556 15.9232 17.0845 15.5729 16.8246L15.4726 16.7379L10.5252 11.7907C9.42397 12.6267 8.05063 13.1228 6.5614 13.1228C2.93764 13.1228 0 10.1852 0 6.5614C0 2.93764 2.93764 0 6.5614 0ZM6.5614 1.78947C3.92594 1.78947 1.78947 3.92594 1.78947 6.5614C1.78947 9.19687 3.92594 11.3333 6.5614 11.3333C9.19687 11.3333 11.3333 9.19687 11.3333 6.5614C11.3333 3.92594 9.19687 1.78947 6.5614 1.78947Z" fill="white"/>
</svg>
