<svg width="22" height="22" viewBox="0 0 22 22" fill="none" xmlns="http://www.w3.org/2000/svg">
<path d="M10.9995 20.8541C10.7795 20.8541 10.5595 20.8266 10.3487 20.7624C5.59121 19.4516 2.14453 15.0057 2.14453 10.1841V6.15988C2.14453 5.13322 2.88704 4.0241 3.84037 3.62993L8.94621 1.5399C10.2754 0.999069 11.7329 0.999069 13.0529 1.5399L18.1587 3.62993C19.112 4.0241 19.8545 5.13322 19.8545 6.15988V10.1841C19.8545 14.9966 16.3987 19.4424 11.6504 20.7624C11.4395 20.8266 11.2195 20.8541 10.9995 20.8541ZM10.9995 2.52074C10.477 2.52074 9.96369 2.62159 9.46869 2.82326L4.36288 4.91323C3.92288 5.09656 3.51953 5.69239 3.51953 6.16906V10.1932C3.51953 14.4007 6.54454 18.2874 10.7154 19.4424C10.8987 19.4974 11.1004 19.4974 11.2837 19.4424C15.4545 18.2874 18.4795 14.4007 18.4795 10.1932V6.16906C18.4795 5.69239 18.0762 5.09656 17.6362 4.91323L12.5304 2.82326C12.0354 2.62159 11.522 2.52074 10.9995 2.52074Z"/>
<path d="M10.9993 12.1457C9.60602 12.1457 8.47852 11.0182 8.47852 9.62484C8.47852 8.2315 9.60602 7.104 10.9993 7.104C12.3927 7.104 13.5202 8.2315 13.5202 9.62484C13.5202 11.0182 12.3927 12.1457 10.9993 12.1457ZM10.9993 8.479C10.3668 8.479 9.85352 8.99234 9.85352 9.62484C9.85352 10.2573 10.3668 10.7707 10.9993 10.7707C11.6318 10.7707 12.1452 10.2573 12.1452 9.62484C12.1452 8.99234 11.6318 8.479 10.9993 8.479Z"/>
<path d="M11 14.896C10.6242 14.896 10.3125 14.5843 10.3125 14.2085V11.4585C10.3125 11.0827 10.6242 10.771 11 10.771C11.3758 10.771 11.6875 11.0827 11.6875 11.4585V14.2085C11.6875 14.5843 11.3758 14.896 11 14.896Z"/>
</svg>
