<svg viewBox="0 0 121 107" xmlns="http://www.w3.org/2000/svg">
<path fill-rule="evenodd" clip-rule="evenodd" d="M20.1016 1.28425C21.9324 2.08878 23.3693 3.5868 24.0968 5.44956C24.8244 7.31232 24.7832 9.38764 23.9823 11.2201C18.1667 24.5557 15.177 38.9515 15.2016 53.5001C15.2016 68.5472 18.3424 82.8394 23.9898 95.7801C24.7195 97.6016 24.7113 99.6356 23.967 101.451C23.2228 103.267 21.8009 104.721 20.0026 105.507C18.2044 106.292 16.1711 106.346 14.3335 105.658C12.4959 104.97 10.9984 103.593 10.1582 101.82C3.50592 86.5805 0.0818195 70.1283 0.101648 53.5001C0.101648 36.3314 3.6879 19.9781 10.1582 5.18005C10.5552 4.27124 11.1273 3.44953 11.8419 2.76187C12.5564 2.0742 13.3995 1.53405 14.3229 1.17228C15.2462 0.810499 16.2318 0.634181 17.2234 0.653395C18.2149 0.672608 19.1929 0.886977 20.1016 1.28425ZM82.8496 30.8501C79.4535 30.8508 76.1011 31.6153 73.0403 33.0868C69.9796 34.5584 67.289 36.6994 65.1675 39.3514L62.6911 42.4469L61.8531 40.3404C60.7325 37.5398 58.7988 35.1391 56.3012 33.4476C53.8037 31.7561 50.8567 30.8514 47.8403 30.8501H45.4016C43.3993 30.8501 41.4789 31.6455 40.063 33.0614C38.6471 34.4773 37.8516 36.3977 37.8516 38.4001C37.8516 40.4024 38.6471 42.3228 40.063 43.7387C41.4789 45.1546 43.3993 45.9501 45.4016 45.9501H47.8403L51.8569 55.9916L44.0426 65.7688C43.335 66.6527 42.4376 67.3661 41.4169 67.8561C40.3962 68.3462 39.2784 68.6005 38.1461 68.6001H37.8516C35.8493 68.6001 33.9289 69.3955 32.513 70.8114C31.0971 72.2273 30.3016 74.1477 30.3016 76.1501C30.3016 78.1524 31.0971 80.0728 32.513 81.4887C33.9289 82.9046 35.8493 83.7001 37.8516 83.7001H38.1461C41.5422 83.6993 44.8947 82.9349 47.9554 81.4633C51.0161 79.9917 53.7068 77.8507 55.8282 75.1988L58.3046 72.1033L59.1426 74.2097C60.2637 77.0115 62.1986 79.4131 64.6976 81.1047C67.1967 82.7962 70.1453 83.7003 73.163 83.7001H75.6016C77.604 83.7001 79.5244 82.9046 80.9403 81.4887C82.3562 80.0728 83.1516 78.1524 83.1516 76.1501C83.1516 74.1477 82.3562 72.2273 80.9403 70.8114C79.5244 69.3955 77.604 68.6001 75.6016 68.6001H73.163L69.1464 58.5586L76.9606 48.7813C77.6683 47.8974 78.5657 47.1841 79.5864 46.694C80.6071 46.2039 81.7249 45.9496 82.8572 45.9501H83.1516C85.154 45.9501 87.0744 45.1546 88.4903 43.7387C89.9062 42.3228 90.7016 40.4024 90.7016 38.4001C90.7016 36.3977 89.9062 34.4773 88.4903 33.0614C87.0744 31.6455 85.154 30.8501 83.1516 30.8501H82.8572H82.8496ZM96.9983 11.2201C96.2098 9.38698 96.179 7.31627 96.9127 5.46055C97.6464 3.60483 99.0849 2.11504 100.914 1.31683C102.743 0.518625 104.813 0.476919 106.673 1.20083C108.532 1.92474 110.03 3.35539 110.837 5.18005C117.492 20.4191 120.919 36.8713 120.902 53.5001C120.902 70.6688 117.315 87.0221 110.845 101.82C110.469 102.759 109.909 103.612 109.196 104.33C108.484 105.048 107.636 105.615 106.7 105.998C105.765 106.382 104.762 106.574 103.751 106.562C102.74 106.551 101.742 106.336 100.815 105.932C99.8885 105.527 99.0526 104.941 98.3571 104.207C97.6616 103.473 97.1205 102.607 96.7659 101.66C96.4114 100.714 96.2506 99.7052 96.2931 98.6951C96.3356 97.685 96.5806 96.6937 97.0134 95.7801C102.832 82.4451 105.824 68.0491 105.802 53.5001C105.802 38.4529 102.661 24.1608 97.0059 11.2201H96.9983Z"/>
</svg>
