<svg width="17" height="14" viewBox="0 0 17 14" fill="none" xmlns="http://www.w3.org/2000/svg">
<path d="M8.45563 0.000924202C8.13232 0.0144871 7.83881 0.18185 7.67772 0.44441L0.125516 12.6754C-0.0426345 12.9494 -0.0417888 13.2865 0.127775 13.5596C0.297339 13.8328 0.609931 14.0007 0.947801 14H16.0522C16.3901 14.0007 16.7026 13.8328 16.8722 13.5596C17.0418 13.2864 17.0426 12.9494 16.8745 12.6754L9.31614 0.44441C9.23002 0.3039 9.10422 0.188211 8.95246 0.109954C8.80083 0.0318324 8.62901 -0.00600614 8.45592 0.0007748L8.45563 0.000924202ZM8.49997 3.6952C8.72361 3.6952 8.90474 3.86934 8.90474 4.08403V9.52822C8.90474 9.74306 8.72346 9.91706 8.49997 9.91706C8.27633 9.91706 8.0952 9.74292 8.0952 9.52822V4.08403C8.0952 3.8692 8.27648 3.6952 8.49997 3.6952ZM8.49997 10.6949C8.83528 10.6949 9.10722 10.9561 9.10722 11.2782C9.10722 11.6003 8.83529 11.8616 8.49997 11.8616C8.16464 11.8616 7.89272 11.6005 7.89272 11.2782C7.89272 10.9561 8.16464 10.6949 8.49997 10.6949Z" fill="#CC2222"/>
</svg>
